 <svg width="64" height="64" viewBox="0 0 64 65" fill="none" xmlns="http://www.w3.org/2000/svg"><path d="M0 32.5391C0 14.866 14.3269 0.539062 32 0.539062C49.6731 0.539062 64 14.866 64 32.5391C64 50.2122 49.6731 64.5391 32 64.5391C14.3269 64.5391 0 50.2122 0 32.5391Z" fill="#0EA2D0" /><path d="M4.11841 32.5403C4.11841 17.0763 16.6544 4.54028 32.1184 4.54028C47.5824 4.54028 60.1184 17.0763 60.1184 32.5403C60.1184 48.0043 47.5824 60.5403 32.1184 60.5403C16.6544 60.5403 4.11841 48.0043 4.11841 32.5403Z" fill="white" /><path d="M35.5164 39.3005H28.4675L27.0964 44.5388H21.6296L29.6277 18.9451H34.3562L42.407 44.5388H36.8875L35.5164 39.3005ZM29.5925 34.9939H34.3738L31.9832 25.8708L29.5925 34.9939Z" fill="#2F0A77" /></svg>
