 <svg width="64" height="64" viewBox="0 0 65 65" fill="none" xmlns="http://www.w3.org/2000/svg"><path d="M0.532715 32.0674C0.532715 14.3943 14.8596 0.0673828 32.5327 0.0673828C50.2058 0.0673828 64.5327 14.3943 64.5327 32.0674C64.5327 49.7405 50.2058 64.0674 32.5327 64.0674C14.8596 64.0674 0.532715 49.7405 0.532715 32.0674Z" fill="url(#paint0_linear_6480_8187)" /><path d="M4.65137 32.0686C4.65137 16.6046 17.1874 4.0686 32.6514 4.0686C48.1153 4.0686 60.6514 16.6046 60.6514 32.0686C60.6514 47.5326 48.1153 60.0686 32.6514 60.0686C17.1874 60.0686 4.65137 47.5326 4.65137 32.0686Z" fill="white" /><path d="M26.1719 38.3438H19.9062L18.6875 43H13.8281L20.9375 20.25H25.1406L32.2969 43H27.3906L26.1719 38.3438ZM20.9062 34.5156H25.1562L23.0312 26.4062L20.9062 34.5156ZM49.5156 35.4219C49.401 38.0156 48.6719 39.9792 47.3281 41.3125C45.9844 42.6458 44.0885 43.3125 41.6406 43.3125C39.0677 43.3125 37.0938 42.4688 35.7188 40.7812C34.3542 39.0833 33.6719 36.6667 33.6719 33.5312V29.7031C33.6719 26.5781 34.3802 24.1719 35.7969 22.4844C37.2135 20.7865 39.1823 19.9375 41.7031 19.9375C44.1823 19.9375 46.0625 20.6302 47.3438 22.0156C48.6354 23.401 49.3698 25.3906 49.5469 27.9844H44.9375C44.8958 26.3802 44.6458 25.276 44.1875 24.6719C43.7396 24.0573 42.9115 23.75 41.7031 23.75C40.474 23.75 39.6042 24.1823 39.0938 25.0469C38.5833 25.901 38.3125 27.3125 38.2812 29.2812V33.5781C38.2812 35.8385 38.5312 37.3906 39.0312 38.2344C39.5417 39.0781 40.4115 39.5 41.6406 39.5C42.849 39.5 43.6823 39.2083 44.1406 38.625C44.599 38.0312 44.8594 36.9635 44.9219 35.4219H49.5156Z" fill="#2F0A77" /><defs><linearGradient id="paint0_linear_6480_8187" x1="0.532715" y1="64.0674" x2="64.5327" y2="64.0674" gradientUnits="userSpaceOnUse"><stop stop-color="#0EA2D0" /><stop offset="1" stop-color="#FFB800" /></linearGradient></defs></svg>
