 <svg width="64" height="64" viewBox="0 0 65 65" fill="none" xmlns="http://www.w3.org/2000/svg"><path d="M0.015625 32.9671C0.015625 15.2927 14.3435 0.964844 32.0179 0.964844C49.6922 0.964844 64.0201 15.2927 64.0201 32.9671C64.0201 50.6414 49.6922 64.9693 32.0179 64.9693C14.3435 64.9693 0.015625 50.6414 0.015625 32.9671Z" fill="url(#paint0_linear_6480_8159)" /><path d="M4.13477 32.9666C4.13477 17.5015 16.6717 4.9646 32.1367 4.9646C47.6018 4.9646 60.1387 17.5015 60.1387 32.9666C60.1387 48.4316 47.6018 60.9685 32.1367 60.9685C16.6717 60.9685 4.13477 48.4316 4.13477 32.9666Z" fill="white" /><path d="M20.8962 38.1833H15.805L14.8147 41.9668H10.8662L16.643 23.4811H20.0583L25.8731 41.9668H21.8865L20.8962 38.1833ZM16.6176 35.0728H20.0709L18.3443 28.4834L16.6176 35.0728ZM39.8643 35.8091C39.7712 37.9167 39.1787 39.5122 38.0869 40.5956C36.995 41.679 35.4545 42.2207 33.4654 42.2207C31.3748 42.2207 29.7708 41.5351 28.6536 40.1639C27.5448 38.7843 26.9904 36.8206 26.9904 34.2729V31.1623C26.9904 28.6231 27.5659 26.6679 28.7171 25.2967C29.8682 23.917 31.4679 23.2272 33.5162 23.2272C35.5307 23.2272 37.0585 23.7901 38.0995 24.9158C39.1491 26.0415 39.7458 27.6582 39.8897 29.7658H36.1443C36.1105 28.4623 35.9073 27.5651 35.5349 27.0742C35.171 26.5748 34.4981 26.3251 33.5162 26.3251C32.5175 26.3251 31.8107 26.6763 31.396 27.3789C30.9812 28.0729 30.7611 29.2198 30.7358 30.8195V34.311C30.7358 36.1477 30.9389 37.4089 31.3452 38.0945C31.7599 38.7801 32.4667 39.1228 33.4654 39.1228C34.4473 39.1228 35.1244 38.8859 35.4968 38.4119C35.8692 37.9294 36.0809 37.0618 36.1316 35.8091H39.8643ZM51.7099 33.9682H45.895V38.8689H52.7764V41.9668H42.1623V23.4811H52.751V26.5917H45.895V30.9592H51.7099V33.9682Z" fill="#2F0A77" /><defs><linearGradient id="paint0_linear_6480_8159" x1="0.015625" y1="64.9693" x2="64.0201" y2="64.9693" gradientUnits="userSpaceOnUse"><stop stop-color="#0EA2D0" /><stop offset="0.5" stop-color="#FFB800" /><stop offset="1" stop-color="#DA222B" /></linearGradient></defs></svg>
