 <svg width="64" height="64" viewBox="0 0 65 65" fill="none" xmlns="http://www.w3.org/2000/svg"><path d="M0.0078125 32.9671C0.0078125 15.2927 14.3357 0.964844 32.0101 0.964844C49.6844 0.964844 64.0123 15.2927 64.0123 32.9671C64.0123 50.6414 49.6844 64.9693 32.0101 64.9693C14.3357 64.9693 0.0078125 50.6414 0.0078125 32.9671Z" fill="url(#paint0_linear_6480_8154)" /><path d="M4.12671 32.9666C4.12671 17.5015 16.6636 4.9646 32.1287 4.9646C47.5937 4.9646 60.1306 17.5015 60.1306 32.9666C60.1306 48.4316 47.5937 60.9685 32.1287 60.9685C16.6636 60.9685 4.12671 48.4316 4.12671 32.9666Z" fill="white" /><path d="M19.872 38.1833H14.7808L13.7905 41.9668H9.84196L15.6187 23.4811H19.034L24.8489 41.9668H20.8623L19.872 38.1833ZM15.5933 35.0728H19.0467L17.32 28.4834L15.5933 35.0728ZM38.8401 35.8091C38.747 37.9167 38.1545 39.5122 37.0626 40.5956C35.9707 41.679 34.4303 42.2207 32.4412 42.2207C30.3506 42.2207 28.7466 41.5351 27.6293 40.1639C26.5205 38.7843 25.9661 36.8206 25.9661 34.2729V31.1623C25.9661 28.6231 26.5417 26.6679 27.6928 25.2967C28.8439 23.917 30.4437 23.2272 32.492 23.2272C34.5064 23.2272 36.0342 23.7901 37.0753 24.9158C38.1249 26.0415 38.7216 27.6582 38.8655 29.7658H35.1201C35.0862 28.4623 34.8831 27.5651 34.5107 27.0742C34.1467 26.5748 33.4738 26.3251 32.492 26.3251C31.4932 26.3251 30.7865 26.6763 30.3717 27.3789C29.957 28.0729 29.7369 29.2198 29.7115 30.8195V34.311C29.7115 36.1477 29.9147 37.4089 30.3209 38.0945C30.7357 38.7801 31.4424 39.1228 32.4412 39.1228C33.423 39.1228 34.1002 38.8859 34.4726 38.4119C34.845 37.9294 35.0566 37.0618 35.1074 35.8091H38.8401ZM44.8708 35.4663V41.9668H41.1381V23.4811H47.4354C49.2637 23.4811 50.7195 24.0482 51.8029 25.1824C52.8948 26.3166 53.4407 27.7894 53.4407 29.6007C53.4407 31.412 52.9032 32.8425 51.8283 33.892C50.7533 34.9416 49.2637 35.4663 47.3592 35.4663H44.8708ZM44.8708 32.3558H47.4354C48.1464 32.3558 48.6966 32.123 49.0859 31.6575C49.4753 31.192 49.6699 30.5148 49.6699 29.6261C49.6699 28.7035 49.471 27.9714 49.0732 27.4296C48.6754 26.8795 48.1422 26.6002 47.4735 26.5917H44.8708V32.3558Z" fill="#2F0A77" /><defs><linearGradient id="paint0_linear_6480_8154" x1="0.0078125" y1="64.9693" x2="64.0123" y2="64.9693" gradientUnits="userSpaceOnUse"><stop stop-color="#0EA2D0" /><stop offset="0.5" stop-color="#FFB800" /><stop offset="1" stop-color="#26C740" /></linearGradient></defs></svg>
