 <svg width="64" height="64" viewBox="0 0 65 65" fill="none" xmlns="http://www.w3.org/2000/svg"><path d="M0.0610352 32.0674C0.0610352 14.3943 14.3879 0.0673828 32.061 0.0673828C49.7341 0.0673828 64.061 14.3943 64.061 32.0674C64.061 49.7405 49.7341 64.0674 32.061 64.0674C14.3879 64.0674 0.0610352 49.7405 0.0610352 32.0674Z" fill="url(#paint0_linear_6480_8193)" /><path d="M4.1792 32.0686C4.1792 16.6046 16.7152 4.0686 32.1792 4.0686C47.6432 4.0686 60.1792 16.6046 60.1792 32.0686C60.1792 47.5326 47.6432 60.0686 32.1792 60.0686C16.7152 60.0686 4.1792 47.5326 4.1792 32.0686Z" fill="white" /><path d="M27.2656 38.3438H21L19.7812 43H14.9219L22.0312 20.25H26.2344L33.3906 43H28.4844L27.2656 38.3438ZM22 34.5156H26.25L24.125 26.4062L22 34.5156ZM47.2812 33.1562H40.125V39.1875H48.5938V43H35.5312V20.25H48.5625V24.0781H40.125V29.4531H47.2812V33.1562Z" fill="#2F0A77" /><defs><linearGradient id="paint0_linear_6480_8193" x1="0.0610352" y1="64.0674" x2="64.061" y2="64.0674" gradientUnits="userSpaceOnUse"><stop stop-color="#0EA2D0" /><stop offset="1" stop-color="#DA222B" /></linearGradient></defs></svg>
