<svg width="64" height="64" viewBox="0 0 65 65" fill="none" xmlns="http://www.w3.org/2000/svg"><path d="M0 32.9749C0 15.3005 14.3279 0.972656 32.0022 0.972656C49.6766 0.972656 64.0045 15.3005 64.0045 32.9749C64.0045 50.6493 49.6766 64.9771 32.0022 64.9771C14.3279 64.9771 0 50.6493 0 32.9749Z" fill="url(#paint0_linear_6480_8074)" /><path d="M4.11865 32.9756C4.11865 17.5105 16.6556 4.97363 32.1206 4.97363C47.5857 4.97363 60.1226 17.5105 60.1226 32.9756C60.1226 48.4406 47.5857 60.9775 32.1206 60.9775C16.6556 60.9775 4.11865 48.4406 4.11865 32.9756Z" fill="white" /><path d="M20.7404 38.1882H15.6493L14.659 41.9717H10.7104L16.4872 23.486H19.9025L25.7173 41.9717H21.7307L20.7404 38.1882ZM16.4618 35.0776H19.9152L18.1885 28.4883L16.4618 35.0776ZM37.0043 33.9731H31.1894V38.8738H38.0707V41.9717H27.4567V23.486H38.0453V26.5966H31.1894V30.9641H37.0043V33.9731ZM52.7602 35.814C52.6671 37.9216 52.0746 39.5171 50.9828 40.6005C49.8909 41.6839 48.3504 42.2256 46.3614 42.2256C44.2707 42.2256 42.6668 41.54 41.5495 40.1688C40.4407 38.7892 39.8863 36.8255 39.8863 34.2778V31.1672C39.8863 28.628 40.4619 26.6728 41.613 25.3016C42.7641 23.9219 44.3638 23.2321 46.4121 23.2321C48.4266 23.2321 49.9544 23.795 50.9955 24.9207C52.045 26.0464 52.6417 27.6631 52.7856 29.7706H49.0403C49.0064 28.4672 48.8033 27.57 48.4308 27.079C48.0669 26.5797 47.394 26.33 46.4121 26.33C45.4134 26.33 44.7066 26.6812 44.2919 27.3837C43.8771 28.0778 43.6571 29.2247 43.6317 30.8244V34.3159C43.6317 36.1526 43.8348 37.4137 44.2411 38.0993C44.6558 38.7849 45.3626 39.1277 46.3614 39.1277C47.3432 39.1277 48.0203 38.8907 48.3927 38.4167C48.7652 37.9343 48.9768 37.0667 49.0276 35.814H52.7602Z" fill="#2F0A77" /><defs><linearGradient id="paint0_linear_6480_8074" x1="0" y1="64.9771" x2="64.0045" y2="64.9771" gradientUnits="userSpaceOnUse"><stop stop-color="#0EA2D0" /><stop offset="0.5" stop-color="#DA222B" /><stop offset="1" stop-color="#FFB800" /></linearGradient></defs></svg>
