 <svg width="64" height="64" viewBox="0 0 65 65" fill="none" xmlns="http://www.w3.org/2000/svg"><path d="M0 32.9749C0 15.3005 14.3279 0.972656 32.0022 0.972656C49.6766 0.972656 64.0045 15.3005 64.0045 32.9749C64.0045 50.6493 49.6766 64.9771 32.0022 64.9771C14.3279 64.9771 0 50.6493 0 32.9749Z" fill="url(#paint0_linear_6480_8049)" /><path d="M4.11841 32.9756C4.11841 17.5105 16.6553 4.97363 32.1204 4.97363C47.5854 4.97363 60.1223 17.5105 60.1223 32.9756C60.1223 48.4406 47.5854 60.9775 32.1204 60.9775C16.6553 60.9775 4.11841 48.4406 4.11841 32.9756Z" fill="white" /><path d="M20.7531 38.1882H15.662L14.6716 41.9717H10.7231L16.4999 23.486H19.9152L25.73 41.9717H21.7434L20.7531 38.1882ZM16.4745 35.0776H19.9279L18.2012 28.4883L16.4745 35.0776ZM37.017 33.9731H31.2021V38.8738H38.0834V41.9717H27.4694V23.486H38.058V26.5966H31.2021V30.9641H37.017V33.9731ZM43.9745 35.4712V41.9717H40.2418V23.486H46.5391C48.3674 23.486 49.8232 24.0531 50.9066 25.1873C51.9985 26.3215 52.5444 27.7943 52.5444 29.6056C52.5444 31.4169 52.0069 32.8473 50.932 33.8969C49.857 34.9465 48.3674 35.4712 46.4629 35.4712H43.9745ZM43.9745 32.3607H46.5391C47.2501 32.3607 47.8003 32.1279 48.1896 31.6624C48.579 31.1968 48.7736 30.5197 48.7736 29.631C48.7736 28.7084 48.5747 27.9762 48.1769 27.4345C47.7791 26.8844 47.2459 26.605 46.5772 26.5966H43.9745V32.3607Z" fill="#2F0A77" /><defs><linearGradient id="paint0_linear_6480_8049" x1="0" y1="64.9771" x2="64.0045" y2="64.9771" gradientUnits="userSpaceOnUse"><stop stop-color="#0EA2D0" /><stop offset="0.5" stop-color="#DA222B" /><stop offset="1" stop-color="#26C740" /></linearGradient></defs></svg>
