 <svg width="64" height="64" viewBox="0 0 65 65" fill="none" xmlns="http://www.w3.org/2000/svg"><path d="M0.00366211 32.0674C0.00366211 14.3943 14.3306 0.0673828 32.0037 0.0673828C49.6768 0.0673828 64.0037 14.3943 64.0037 32.0674C64.0037 49.7405 49.6768 64.0674 32.0037 64.0674C14.3306 64.0674 0.00366211 49.7405 0.00366211 32.0674Z" fill="url(#paint0_linear_6480_8039)" /><path d="M4.12183 32.0686C4.12183 16.6046 16.6579 4.0686 32.1218 4.0686C47.5858 4.0686 60.1218 16.6046 60.1218 32.0686C60.1218 47.5326 47.5858 60.0686 32.1218 60.0686C16.6579 60.0686 4.12183 47.5326 4.12183 32.0686Z" fill="white" /><path d="M26.0156 38.3438H19.75L18.5312 43H13.6719L20.7812 20.25H24.9844L32.1406 43H27.2344L26.0156 38.3438ZM20.75 34.5156H25L22.875 26.4062L20.75 34.5156ZM38.875 35V43H34.2812V20.25H42.0312C44.2812 20.25 46.0729 20.9479 47.4062 22.3438C48.75 23.7396 49.4219 25.5521 49.4219 27.7812C49.4219 30.0104 48.7604 31.7708 47.4375 33.0625C46.1146 34.3542 44.2812 35 41.9375 35H38.875ZM38.875 31.1719H42.0312C42.9062 31.1719 43.5833 30.8854 44.0625 30.3125C44.5417 29.7396 44.7812 28.9062 44.7812 27.8125C44.7812 26.6771 44.5365 25.776 44.0469 25.1094C43.5573 24.4323 42.901 24.0885 42.0781 24.0781H38.875V31.1719Z" fill="#2F0A77" /><defs><linearGradient id="paint0_linear_6480_8039" x1="0.00366211" y1="64.0674" x2="64.0037" y2="64.0674" gradientUnits="userSpaceOnUse"><stop stop-color="#0EA2D0" /><stop offset="1" stop-color="#26C740" /></linearGradient></defs></svg>
