 <svg width="64" height="64" viewBox="0 0 65 65" fill="none" xmlns="http://www.w3.org/2000/svg"><path d="M0 32.9671C0 15.2927 14.3279 0.964844 32.0022 0.964844C49.6766 0.964844 64.0045 15.2927 64.0045 32.9671C64.0045 50.6414 49.6766 64.9693 32.0022 64.9693C14.3279 64.9693 0 50.6414 0 32.9671Z" fill="url(#paint0_linear_6480_8044)" /><path d="M4.1189 32.9666C4.1189 17.5015 16.6558 4.9646 32.1209 4.9646C47.5859 4.9646 60.1228 17.5015 60.1228 32.9666C60.1228 48.4316 47.5859 60.9685 32.1209 60.9685C16.6558 60.9685 4.1189 48.4316 4.1189 32.9666Z" fill="white" /><path d="M19.7247 38.1833H14.6336L13.6433 41.9668H9.69474L15.4715 23.4811H18.8868L24.7016 41.9668H20.715L19.7247 38.1833ZM15.4461 35.0728H18.8995L17.1728 28.4834L15.4461 35.0728ZM30.1737 35.4663V41.9668H26.441V23.4811H32.7383C34.5666 23.4811 36.0224 24.0482 37.1058 25.1824C38.1977 26.3166 38.7436 27.7894 38.7436 29.6007C38.7436 31.412 38.2062 32.8425 37.1312 33.892C36.0563 34.9416 34.5666 35.4663 32.6622 35.4663H30.1737ZM30.1737 32.3558H32.7383C33.4493 32.3558 33.9995 32.123 34.3888 31.6575C34.7782 31.192 34.9729 30.5148 34.9729 29.6261C34.9729 28.7035 34.774 27.9714 34.3761 27.4296C33.9783 26.8795 33.4451 26.6002 32.7764 26.5917H30.1737V32.3558ZM53.7759 35.8091C53.6828 37.9167 53.0903 39.5122 51.9985 40.5956C50.9066 41.679 49.3661 42.2207 47.3771 42.2207C45.2864 42.2207 43.6825 41.5351 42.5652 40.1639C41.4564 38.7843 40.902 36.8206 40.902 34.2729V31.1623C40.902 28.6231 41.4776 26.6679 42.6287 25.2967C43.7798 23.917 45.3795 23.2272 47.4278 23.2272C49.4423 23.2272 50.9701 23.7901 52.0112 24.9158C53.0607 26.0415 53.6574 27.6582 53.8013 29.7658H50.056C50.0221 28.4623 49.819 27.5651 49.4465 27.0742C49.0826 26.5748 48.4097 26.3251 47.4278 26.3251C46.4291 26.3251 45.7223 26.6763 45.3076 27.3789C44.8928 28.0729 44.6728 29.2198 44.6474 30.8195V34.311C44.6474 36.1477 44.8505 37.4089 45.2568 38.0945C45.6715 38.7801 46.3783 39.1228 47.3771 39.1228C48.3589 39.1228 49.036 38.8859 49.4084 38.4119C49.7809 37.9294 49.9925 37.0618 50.0433 35.8091H53.7759Z" fill="#2F0A77" /><defs><linearGradient id="paint0_linear_6480_8044" x1="0" y1="64.9693" x2="64.0045" y2="64.9693" gradientUnits="userSpaceOnUse"><stop stop-color="#0EA2D0" /><stop offset="0.5" stop-color="#26C740" /><stop offset="1" stop-color="#FFB800" /></linearGradient></defs></svg>
