 <svg width="64" height="64" viewBox="0 0 65 65" fill="none" xmlns="http://www.w3.org/2000/svg"><path d="M0 32.9671C0 15.2927 14.3279 0.964844 32.0022 0.964844C49.6766 0.964844 64.0045 15.2927 64.0045 32.9671C64.0045 50.6414 49.6766 64.9693 32.0022 64.9693C14.3279 64.9693 0 50.6414 0 32.9671Z" fill="url(#paint0_linear_6480_8149)" /><path d="M4.11816 32.9658C4.11816 17.5008 16.6551 4.96387 32.1201 4.96387C47.5852 4.96387 60.1221 17.5008 60.1221 32.9658C60.1221 48.4309 47.5852 60.9678 32.1201 60.9678C16.6551 60.9678 4.11816 48.4309 4.11816 32.9658Z" fill="white" /><path d="M20.7531 38.1833H15.662L14.6716 41.9668H10.7231L16.4999 23.4811H19.9152L25.73 41.9668H21.7434L20.7531 38.1833ZM16.4745 35.0728H19.9279L18.2012 28.4834L16.4745 35.0728ZM31.2021 35.4663V41.9668H27.4694V23.4811H33.7667C35.595 23.4811 37.0508 24.0482 38.1342 25.1824C39.2261 26.3166 39.772 27.7894 39.772 29.6007C39.772 31.412 39.2346 32.8425 38.1596 33.892C37.0847 34.9416 35.595 35.4663 33.6906 35.4663H31.2021ZM31.2021 32.3558H33.7667C34.4777 32.3558 35.0279 32.123 35.4172 31.6575C35.8066 31.192 36.0013 30.5148 36.0013 29.6261C36.0013 28.7035 35.8024 27.9714 35.4045 27.4296C35.0067 26.8795 34.4735 26.6002 33.8048 26.5917H31.2021V32.3558ZM51.8207 33.9682H46.0059V38.8689H52.8872V41.9668H42.2732V23.4811H52.8618V26.5917H46.0059V30.9592H51.8207V33.9682Z" fill="#2F0A77" /><defs><linearGradient id="paint0_linear_6480_8149" x1="0" y1="64.9693" x2="64.0045" y2="64.9693" gradientUnits="userSpaceOnUse"><stop stop-color="#0EA2D0" /><stop offset="0.5" stop-color="#26C740" /><stop offset="1" stop-color="#DA222B" /></linearGradient></defs></svg>
