 <svg width="64" height="64" viewBox="0 0 65 65" fill="none" xmlns="http://www.w3.org/2000/svg"><path d="M0.0625 32.5391C0.0625 14.866 14.3894 0.539062 32.0625 0.539062C49.7356 0.539062 64.0625 14.866 64.0625 32.5391C64.0625 50.2122 49.7356 64.5391 32.0625 64.5391C14.3894 64.5391 0.0625 50.2122 0.0625 32.5391Z" fill="#FFB800" /><path d="M4.18115 32.5403C4.18115 17.0763 16.7172 4.54028 32.1812 4.54028C47.6451 4.54028 60.1812 17.0763 60.1812 32.5403C60.1812 48.0043 47.6451 60.5403 32.1812 60.5403C16.7172 60.5403 4.18115 48.0043 4.18115 32.5403Z" fill="white" /><path d="M41.2036 36.0134C41.0747 38.9314 40.2544 41.1404 38.7427 42.6404C37.231 44.1404 35.0981 44.8904 32.3442 44.8904C29.4497 44.8904 27.229 43.9412 25.6821 42.0427C24.147 40.1326 23.3794 37.4138 23.3794 33.8865V29.5798C23.3794 26.0642 24.1763 23.3572 25.77 21.4587C27.3638 19.5486 29.5786 18.5935 32.4146 18.5935C35.2036 18.5935 37.3188 19.3728 38.7603 20.9314C40.2134 22.49 41.0396 24.7283 41.2388 27.6462H36.0532C36.0063 25.8416 35.7251 24.5994 35.2095 23.9197C34.7056 23.2283 33.7739 22.8826 32.4146 22.8826C31.0317 22.8826 30.0532 23.3689 29.479 24.3416C28.9048 25.3025 28.6001 26.8904 28.5649 29.1052V33.9392C28.5649 36.4822 28.8462 38.2283 29.4087 39.1775C29.9829 40.1267 30.9614 40.6013 32.3442 40.6013C33.7036 40.6013 34.6411 40.2732 35.1567 39.6169C35.6724 38.949 35.9653 37.7478 36.0356 36.0134H41.2036Z" fill="#2F0A77" /></svg>
