 <svg width="64" height="64" viewBox="0 0 65 65" fill="none" xmlns="http://www.w3.org/2000/svg"><path d="M0.0625 32.5977C0.0625 14.9245 14.3894 0.597656 32.0625 0.597656C49.7356 0.597656 64.0625 14.9245 64.0625 32.5977C64.0625 50.2708 49.7356 64.5977 32.0625 64.5977C14.3894 64.5977 0.0625 50.2708 0.0625 32.5977Z" fill="url(#paint0_linear_6480_8175)" /><path d="M4.18115 32.5989C4.18115 17.1349 16.7172 4.59888 32.1812 4.59888C47.6451 4.59888 60.1812 17.1349 60.1812 32.5989C60.1812 48.0629 47.6451 60.5989 32.1812 60.5989C16.7172 60.5989 4.18115 48.0629 4.18115 32.5989Z" fill="white" /><path d="M30.564 36.4229C30.4494 39.0166 29.7202 40.9801 28.3765 42.3135C27.0327 43.6468 25.1369 44.3135 22.689 44.3135C20.116 44.3135 18.1421 43.4697 16.7671 41.7822C15.4025 40.0843 14.7202 37.6676 14.7202 34.5322V30.7041C14.7202 27.5791 15.4285 25.1729 16.8452 23.4854C18.2619 21.7874 20.2306 20.9385 22.7515 20.9385C25.2306 20.9385 27.1108 21.6312 28.3921 23.0166C29.6838 24.402 30.4181 26.3916 30.5952 28.9854H25.9858C25.9442 27.3812 25.6942 26.277 25.2358 25.6729C24.7879 25.0583 23.9598 24.751 22.7515 24.751C21.5223 24.751 20.6525 25.1833 20.1421 26.0479C19.6317 26.902 19.3608 28.3135 19.3296 30.2822V34.5791C19.3296 36.8395 19.5796 38.3916 20.0796 39.2354C20.59 40.0791 21.4598 40.501 22.689 40.501C23.8973 40.501 24.7306 40.2093 25.189 39.626C25.6473 39.0322 25.9077 37.9645 25.9702 36.4229H30.564ZM44.2515 39.3447H37.9858L36.7671 44.001H31.9077L39.0171 21.251H43.2202L50.3765 44.001H45.4702L44.2515 39.3447ZM38.9858 35.5166H43.2358L41.1108 27.4072L38.9858 35.5166Z" fill="#2F0A77" /><defs><linearGradient id="paint0_linear_6480_8175" x1="0.0625" y1="64.5977" x2="64.0625" y2="64.5977" gradientUnits="userSpaceOnUse"><stop stop-color="#FFB800" /><stop offset="1" stop-color="#0EA2D0" /></linearGradient></defs></svg>
