<svg width="64" height="64" viewBox="0 0 65 65" fill="none" xmlns="http://www.w3.org/2000/svg"><path d="M0 32.9866C0 15.3123 14.3279 0.984375 32.0022 0.984375C49.6766 0.984375 64.0045 15.3123 64.0045 32.9866C64.0045 50.661 49.6766 64.9889 32.0022 64.9889C14.3279 64.9889 0 50.661 0 32.9866Z" fill="url(#paint0_linear_6480_8084)" /><path d="M4.11816 32.9868C4.11816 17.5218 16.6551 4.98486 32.1201 4.98486C47.5852 4.98486 60.1221 17.5218 60.1221 32.9868C60.1221 48.4519 47.5852 60.9888 32.1201 60.9888C16.6551 60.9888 4.11816 48.4519 4.11816 32.9868Z" fill="white" /><path d="M24.4477 35.8257C24.3546 37.9333 23.7621 39.5288 22.6703 40.6122C21.5784 41.6956 20.0379 42.2373 18.0488 42.2373C15.9582 42.2373 14.3542 41.5517 13.237 40.1805C12.1282 38.8009 11.5738 36.8372 11.5738 34.2895V31.1789C11.5738 28.6397 12.1493 26.6845 13.3005 25.3133C14.4516 23.9336 16.0513 23.2438 18.0996 23.2438C20.1141 23.2438 21.6419 23.8067 22.6829 24.9324C23.7325 26.0581 24.3292 27.6748 24.4731 29.7824H20.7277C20.6939 28.4789 20.4907 27.5817 20.1183 27.0908C19.7544 26.5914 19.0815 26.3417 18.0996 26.3417C17.1009 26.3417 16.3941 26.6929 15.9794 27.3955C15.5646 28.0895 15.3445 29.2364 15.3192 30.8361V34.3276C15.3192 36.1643 15.5223 37.4255 15.9286 38.1111C16.3433 38.7967 17.0501 39.1395 18.0488 39.1395C19.0307 39.1395 19.7078 38.9025 20.0802 38.4285C20.4526 37.946 20.6643 37.0784 20.715 35.8257H24.4477ZM35.5696 38.1999H30.4784L29.4881 41.9834H25.5396L31.3164 23.4977H34.7316L40.5465 41.9834H36.5599L35.5696 38.1999ZM31.291 35.0894H34.7443L33.0177 28.5L31.291 35.0894ZM51.8334 33.9848H46.0186V38.8855H52.8999V41.9834H42.2859V23.4977H52.8745V26.6083H46.0186V30.9758H51.8334V33.9848Z" fill="#2F0A77" /><defs><linearGradient id="paint0_linear_6480_8084" x1="0" y1="64.9889" x2="64.0045" y2="64.9889" gradientUnits="userSpaceOnUse"><stop stop-color="#FFB800" /><stop offset="0.5" stop-color="#0EA2D0" /><stop offset="1" stop-color="#DA222B" /></linearGradient></defs></svg>
