<svg width="64" height="64" viewBox="0 0 65 65" fill="none" xmlns="http://www.w3.org/2000/svg"><path d="M0 32.9866C0 15.3123 14.3279 0.984375 32.0022 0.984375C49.6766 0.984375 64.0045 15.3123 64.0045 32.9866C64.0045 50.661 49.6766 64.9889 32.0022 64.9889C14.3279 64.9889 0 50.661 0 32.9866Z" fill="url(#paint0_linear_6480_8059)" /><path d="M4.1189 32.9878C4.1189 17.5227 16.6558 4.98584 32.1209 4.98584C47.5859 4.98584 60.1228 17.5227 60.1228 32.9878C60.1228 48.4529 47.5859 60.9898 32.1209 60.9898C16.6558 60.9898 4.1189 48.4529 4.1189 32.9878Z" fill="white" /><path d="M23.432 35.8257C23.3389 37.9333 22.7464 39.5288 21.6546 40.6122C20.5627 41.6956 19.0222 42.2373 17.0331 42.2373C14.9425 42.2373 13.3385 41.5517 12.2213 40.1805C11.1125 38.8009 10.5581 36.8372 10.5581 34.2895V31.1789C10.5581 28.6397 11.1336 26.6845 12.2848 25.3133C13.4359 23.9336 15.0356 23.2438 17.0839 23.2438C19.0984 23.2438 20.6262 23.8067 21.6673 24.9324C22.7168 26.0581 23.3135 27.6748 23.4574 29.7824H19.712C19.6782 28.4789 19.475 27.5817 19.1026 27.0908C18.7387 26.5914 18.0658 26.3417 17.0839 26.3417C16.0852 26.3417 15.3784 26.6929 14.9637 27.3955C14.5489 28.0895 14.3288 29.2364 14.3035 30.8361V34.3276C14.3035 36.1643 14.5066 37.4255 14.9129 38.1111C15.3276 38.7967 16.0344 39.1395 17.0331 39.1395C18.015 39.1395 18.6921 38.9025 19.0645 38.4285C19.437 37.946 19.6486 37.0784 19.6993 35.8257H23.432ZM34.5539 38.1999H29.4627L28.4724 41.9834H24.5239L30.3007 23.4977H33.7159L39.5308 41.9834H35.5442L34.5539 38.1999ZM30.2753 35.0894H33.7286L32.002 28.5L30.2753 35.0894ZM45.0029 35.4829V41.9834H41.2702V23.4977H47.5675C49.3958 23.4977 50.8516 24.0648 51.935 25.199C53.0269 26.3332 53.5728 27.806 53.5728 29.6173C53.5728 31.4286 53.0353 32.8591 51.9604 33.9086C50.8854 34.9582 49.3958 35.4829 47.4913 35.4829H45.0029ZM45.0029 32.3724H47.5675C48.2785 32.3724 48.8287 32.1396 49.218 31.6741C49.6074 31.2086 49.802 30.5314 49.802 29.6427C49.802 28.7201 49.6031 27.988 49.2053 27.4463C48.8075 26.8961 48.2743 26.6168 47.6056 26.6083H45.0029V32.3724Z" fill="#2F0A77" /><defs><linearGradient id="paint0_linear_6480_8059" x1="0" y1="64.9889" x2="64.0045" y2="64.9889" gradientUnits="userSpaceOnUse"><stop stop-color="#FFB800" /><stop offset="0.5" stop-color="#0EA2D0" /><stop offset="1" stop-color="#26C740" /></linearGradient></defs></svg>
