 <svg width="64" height="64" viewBox="0 0 65 65" fill="none" xmlns="http://www.w3.org/2000/svg"><path d="M0 32.9632C0 15.2888 14.3279 0.960938 32.0022 0.960938C49.6766 0.960938 64.0045 15.2888 64.0045 32.9632C64.0045 50.6375 49.6766 64.9654 32.0022 64.9654C14.3279 64.9654 0 50.6375 0 32.9632Z" fill="url(#paint0_linear_6480_8205)" /><path d="M4.11841 32.9644C4.11841 17.4993 16.6553 4.9624 32.1204 4.9624C47.5854 4.9624 60.1223 17.4993 60.1223 32.9644C60.1223 48.4294 47.5854 60.9663 32.1204 60.9663C16.6553 60.9663 4.11841 48.4294 4.11841 32.9644Z" fill="white" /><path d="M32.2671 36.3833C32.1525 38.9771 31.4233 40.9406 30.0796 42.2739C28.7358 43.6073 26.84 44.2739 24.3921 44.2739C21.8192 44.2739 19.8452 43.4302 18.4702 41.7427C17.1056 40.0448 16.4233 37.6281 16.4233 34.4927V30.6646C16.4233 27.5396 17.1317 25.1333 18.5483 23.4458C19.965 21.7479 21.9338 20.8989 24.4546 20.8989C26.9338 20.8989 28.814 21.5916 30.0952 22.9771C31.3869 24.3625 32.1213 26.3521 32.2983 28.9458H27.689C27.6473 27.3416 27.3973 26.2375 26.939 25.6333C26.4911 25.0187 25.6629 24.7114 24.4546 24.7114C23.2254 24.7114 22.3556 25.1437 21.8452 26.0083C21.3348 26.8625 21.064 28.2739 21.0327 30.2427V34.5396C21.0327 36.8 21.2827 38.3521 21.7827 39.1958C22.2931 40.0396 23.1629 40.4614 24.3921 40.4614C25.6004 40.4614 26.4338 40.1698 26.8921 39.5864C27.3504 38.9927 27.6108 37.925 27.6733 36.3833H32.2671ZM46.8452 34.1177H39.689V40.1489H48.1577V43.9614H35.0952V21.2114H48.1265V25.0396H39.689V30.4146H46.8452V34.1177Z" fill="#2F0A77" /><defs><linearGradient id="paint0_linear_6480_8205" x1="0" y1="64.9654" x2="64.0045" y2="64.9654" gradientUnits="userSpaceOnUse"><stop stop-color="#FFB800" /><stop offset="1" stop-color="#DA222B" /></linearGradient></defs></svg>
