<svg width="64" height="64" viewBox="0 0 65 65" fill="none" xmlns="http://www.w3.org/2000/svg"><path d="M0 32.9905C0 15.3162 14.3279 0.988281 32.0022 0.988281C49.6766 0.988281 64.0045 15.3162 64.0045 32.9905C64.0045 50.6649 49.6766 64.9928 32.0022 64.9928C14.3279 64.9928 0 50.6649 0 32.9905Z" fill="url(#paint0_linear_6480_8064)" /><path d="M4.1189 32.9912C4.1189 17.5262 16.6558 4.98926 32.1209 4.98926C47.5859 4.98926 60.1228 17.5262 60.1228 32.9912C60.1228 48.4563 47.5859 60.9932 32.1209 60.9932C16.6558 60.9932 4.1189 48.4563 4.1189 32.9912Z" fill="white" /><path d="M24.4477 35.8336C24.3546 37.9411 23.7621 39.5366 22.6703 40.62C21.5784 41.7034 20.0379 42.2451 18.0488 42.2451C15.9582 42.2451 14.3542 41.5595 13.237 40.1884C12.1282 38.8087 11.5738 36.845 11.5738 34.2973V31.1867C11.5738 28.6475 12.1493 26.6923 13.3005 25.3211C14.4516 23.9414 16.0513 23.2516 18.0996 23.2516C20.1141 23.2516 21.6419 23.8145 22.6829 24.9402C23.7325 26.0659 24.3292 27.6826 24.4731 29.7902H20.7277C20.6939 28.4867 20.4907 27.5895 20.1183 27.0986C19.7544 26.5992 19.0815 26.3495 18.0996 26.3495C17.1009 26.3495 16.3941 26.7008 15.9794 27.4033C15.5646 28.0973 15.3445 29.2442 15.3192 30.8439V34.3354C15.3192 36.1721 15.5223 37.4333 15.9286 38.1189C16.3433 38.8045 17.0501 39.1473 18.0488 39.1473C19.0307 39.1473 19.7078 38.9103 20.0802 38.4363C20.4526 37.9538 20.6643 37.0862 20.715 35.8336H24.4477ZM36.2933 33.9926H30.4784V38.8933H37.3598V41.9912H26.7457V23.5055H37.3344V26.6161H30.4784V30.9836H36.2933V33.9926ZM48.342 38.2077H43.2508L42.2605 41.9912H38.312L44.0887 23.5055H47.504L53.3189 41.9912H49.3323L48.342 38.2077ZM44.0633 35.0972H47.5167L45.79 28.5078L44.0633 35.0972Z" fill="#2F0A77" /><defs><linearGradient id="paint0_linear_6480_8064" x1="0" y1="64.9928" x2="64.0045" y2="64.9928" gradientUnits="userSpaceOnUse"><stop stop-color="#FFB800" /><stop offset="0.5" stop-color="#DA222B" /><stop offset="1" stop-color="#0EA2D0" /></linearGradient></defs></svg>
