<svg width="64" height="64" viewBox="0 0 65 65" fill="none" xmlns="http://www.w3.org/2000/svg"><path d="M0 32.9905C0 15.3162 14.3279 0.988281 32.0022 0.988281C49.6766 0.988281 64.0045 15.3162 64.0045 32.9905C64.0045 50.6649 49.6766 64.9928 32.0022 64.9928C14.3279 64.9928 0 50.6649 0 32.9905Z" fill="url(#paint0_linear_6480_8089)" /><path d="M4.11768 32.9893C4.11768 17.5242 16.6546 4.9873 32.1196 4.9873C47.5847 4.9873 60.1216 17.5242 60.1216 32.9893C60.1216 48.4543 47.5847 60.9912 32.1196 60.9912C16.6546 60.9912 4.11768 48.4543 4.11768 32.9893Z" fill="white" /><path d="M24.8159 35.8336C24.7228 37.9411 24.1303 39.5366 23.0384 40.62C21.9466 41.7034 20.4061 42.2451 18.417 42.2451C16.3264 42.2451 14.7224 41.5595 13.6052 40.1884C12.4964 38.8087 11.942 36.845 11.942 34.2973V31.1867C11.942 28.6475 12.5175 26.6923 13.6686 25.3211C14.8198 23.9414 16.4195 23.2516 18.4678 23.2516C20.4823 23.2516 22.01 23.8145 23.0511 24.9402C24.1007 26.0659 24.6974 27.6826 24.8413 29.7902H21.0959C21.0621 28.4867 20.8589 27.5895 20.4865 27.0986C20.1225 26.5992 19.4496 26.3495 18.4678 26.3495C17.469 26.3495 16.7623 26.7008 16.3475 27.4033C15.9328 28.0973 15.7127 29.2442 15.6873 30.8439V34.3354C15.6873 36.1721 15.8905 37.4333 16.2968 38.1189C16.7115 38.8045 17.4183 39.1473 18.417 39.1473C19.3989 39.1473 20.076 38.9103 20.4484 38.4363C20.8208 37.9538 21.0324 37.0862 21.0832 35.8336H24.8159ZM36.6615 33.9926H30.8466V38.8933H37.7279V41.9912H27.1139V23.5055H37.7025V26.6161H30.8466V30.9836H36.6615V33.9926ZM43.619 35.4908V41.9912H39.8863V23.5055H46.1836C48.0119 23.5055 49.4677 24.0726 50.5511 25.2068C51.643 26.341 52.1889 27.8138 52.1889 29.6251C52.1889 31.4364 51.6514 32.8669 50.5765 33.9164C49.5016 34.966 48.0119 35.4908 46.1074 35.4908H43.619ZM43.619 32.3802H46.1836C46.8946 32.3802 47.4448 32.1474 47.8341 31.6819C48.2235 31.2164 48.4181 30.5392 48.4181 29.6505C48.4181 28.7279 48.2192 27.9958 47.8214 27.4541C47.4236 26.9039 46.8904 26.6246 46.2217 26.6161H43.619V32.3802Z" fill="#2F0A77" /><defs><linearGradient id="paint0_linear_6480_8089" x1="0" y1="64.9928" x2="64.0045" y2="64.9928" gradientUnits="userSpaceOnUse"><stop stop-color="#FFB800" /><stop offset="0.5" stop-color="#DA222B" /><stop offset="1" stop-color="#26C740" /></linearGradient></defs></svg>
