 <svg width="64" height="64" viewBox="0 0 64 65" fill="none" xmlns="http://www.w3.org/2000/svg"><path d="M0 32.8711C0 15.198 14.3269 0.871094 32 0.871094C49.6731 0.871094 64 15.198 64 32.8711C64 50.5442 49.6731 64.8711 32 64.8711C14.3269 64.8711 0 50.5442 0 32.8711Z" fill="url(#paint0_linear_6480_8199)" /><path d="M4.11841 32.8708C4.11841 17.4069 16.6544 4.87085 32.1184 4.87085C47.5824 4.87085 60.1184 17.4069 60.1184 32.8708C60.1184 48.3348 47.5824 60.8708 32.1184 60.8708C16.6544 60.8708 4.11841 48.3348 4.11841 32.8708Z" fill="white" /><path d="M31.0156 36.4229C30.901 39.0166 30.1719 40.9801 28.8281 42.3135C27.4844 43.6468 25.5885 44.3135 23.1406 44.3135C20.5677 44.3135 18.5938 43.4697 17.2188 41.7822C15.8542 40.0843 15.1719 37.6676 15.1719 34.5322V30.7041C15.1719 27.5791 15.8802 25.1729 17.2969 23.4854C18.7135 21.7874 20.6823 20.9385 23.2031 20.9385C25.6823 20.9385 27.5625 21.6312 28.8438 23.0166C30.1354 24.402 30.8698 26.3916 31.0469 28.9854H26.4375C26.3958 27.3812 26.1458 26.277 25.6875 25.6729C25.2396 25.0583 24.4115 24.751 23.2031 24.751C21.974 24.751 21.1042 25.1833 20.5938 26.0479C20.0833 26.902 19.8125 28.3135 19.7812 30.2822V34.5791C19.7812 36.8395 20.0312 38.3916 20.5312 39.2354C21.0417 40.0791 21.9115 40.501 23.1406 40.501C24.349 40.501 25.1823 40.2093 25.6406 39.626C26.099 39.0322 26.3594 37.9645 26.4219 36.4229H31.0156ZM38.4375 36.001V44.001H33.8438V21.251H41.5938C43.8438 21.251 45.6354 21.9489 46.9688 23.3447C48.3125 24.7406 48.9844 26.5531 48.9844 28.7822C48.9844 31.0114 48.3229 32.7718 47 34.0635C45.6771 35.3551 43.8438 36.001 41.5 36.001H38.4375ZM38.4375 32.1729H41.5938C42.4688 32.1729 43.1458 31.8864 43.625 31.3135C44.1042 30.7406 44.3438 29.9072 44.3438 28.8135C44.3438 27.6781 44.099 26.777 43.6094 26.1104C43.1198 25.4333 42.4635 25.0895 41.6406 25.0791H38.4375V32.1729Z" fill="#2F0A77" /><defs><linearGradient id="paint0_linear_6480_8199" x1="0" y1="64.8711" x2="64" y2="64.8711" gradientUnits="userSpaceOnUse"><stop stop-color="#FFB800" /><stop offset="1" stop-color="#26C740" /></linearGradient></defs></svg>
