 <svg width="64" height="64" viewBox="0 0 65 65" fill="none" xmlns="http://www.w3.org/2000/svg"><path d="M0.0078125 32.9866C0.0078125 15.3123 14.3357 0.984375 32.0101 0.984375C49.6844 0.984375 64.0123 15.3123 64.0123 32.9866C64.0123 50.661 49.6844 64.9889 32.0101 64.9889C14.3357 64.9889 0.0078125 50.661 0.0078125 32.9866Z" fill="url(#paint0_linear_6480_8109)" /><path d="M4.12671 32.9878C4.12671 17.5227 16.6636 4.98584 32.1287 4.98584C47.5937 4.98584 60.1306 17.5227 60.1306 32.9878C60.1306 48.4529 47.5937 60.9898 32.1287 60.9898C16.6636 60.9898 4.12671 48.4529 4.12671 32.9878Z" fill="white" /><path d="M24.5696 35.8257C24.4764 37.9333 23.884 39.5288 22.7921 40.6122C21.7002 41.6956 20.1597 42.2373 18.1707 42.2373C16.08 42.2373 14.4761 41.5517 13.3588 40.1805C12.25 38.8009 11.6956 36.8372 11.6956 34.2895V31.1789C11.6956 28.6397 12.2712 26.6845 13.4223 25.3133C14.5734 23.9336 16.1731 23.2438 18.2215 23.2438C20.2359 23.2438 21.7637 23.8067 22.8048 24.9324C23.8543 26.0581 24.4511 27.6748 24.5949 29.7824H20.8496C20.8157 28.4789 20.6126 27.5817 20.2401 27.0908C19.8762 26.5914 19.2033 26.3417 18.2215 26.3417C17.2227 26.3417 16.5159 26.6929 16.1012 27.3955C15.6864 28.0895 15.4664 29.2364 15.441 30.8361V34.3276C15.441 36.1643 15.6441 37.4255 16.0504 38.1111C16.4651 38.7967 17.1719 39.1395 18.1707 39.1395C19.1525 39.1395 19.8296 38.9025 20.2021 38.4285C20.5745 37.946 20.7861 37.0784 20.8369 35.8257H24.5696ZM30.6002 35.4829V41.9834H26.8676V23.4977H33.1649C34.9931 23.4977 36.449 24.0648 37.5324 25.199C38.6242 26.3332 39.1702 27.806 39.1702 29.6173C39.1702 31.4286 38.6327 32.8591 37.5578 33.9086C36.4828 34.9582 34.9931 35.4829 33.0887 35.4829H30.6002ZM30.6002 32.3724H33.1649C33.8759 32.3724 34.426 32.1396 34.8154 31.6741C35.2047 31.2086 35.3994 30.5314 35.3994 29.6427C35.3994 28.7201 35.2005 27.988 34.8027 27.4463C34.4049 26.8961 33.8716 26.6168 33.203 26.6083H30.6002V32.3724ZM48.2353 38.1999H43.1441L42.1538 41.9834H38.2053L43.982 23.4977H47.3973L53.2122 41.9834H49.2256L48.2353 38.1999ZM43.9567 35.0894H47.41L45.6833 28.5L43.9567 35.0894Z" fill="#2F0A77" /><defs><linearGradient id="paint0_linear_6480_8109" x1="0.0078125" y1="64.9889" x2="64.0123" y2="64.9889" gradientUnits="userSpaceOnUse"><stop stop-color="#FFB800" /><stop offset="0.5" stop-color="#26C740" /><stop offset="1" stop-color="#0EA2D0" /></linearGradient></defs></svg>
