<svg width="64" height="64" viewBox="0 0 65 65" fill="none" xmlns="http://www.w3.org/2000/svg"><path d="M0.015625 32.9866C0.015625 15.3123 14.3435 0.984375 32.0179 0.984375C49.6922 0.984375 64.0201 15.3123 64.0201 32.9866C64.0201 50.661 49.6922 64.9889 32.0179 64.9889C14.3435 64.9889 0.015625 50.661 0.015625 32.9866Z" fill="url(#paint0_linear_6480_8134)" /><path d="M4.13477 32.9878C4.13477 17.5227 16.6717 4.98584 32.1367 4.98584C47.6018 4.98584 60.1387 17.5227 60.1387 32.9878C60.1387 48.4529 47.6018 60.9898 32.1367 60.9898C16.6717 60.9898 4.13477 48.4529 4.13477 32.9878Z" fill="white" /><path d="M24.832 35.8257C24.7389 37.9333 24.1464 39.5288 23.0546 40.6122C21.9627 41.6956 20.4222 42.2373 18.4331 42.2373C16.3425 42.2373 14.7385 41.5517 13.6213 40.1805C12.5125 38.8009 11.9581 36.8372 11.9581 34.2895V31.1789C11.9581 28.6397 12.5336 26.6845 13.6848 25.3133C14.8359 23.9336 16.4356 23.2438 18.4839 23.2438C20.4984 23.2438 22.0262 23.8067 23.0672 24.9324C24.1168 26.0581 24.7135 27.6748 24.8574 29.7824H21.112C21.0782 28.4789 20.875 27.5817 20.5026 27.0908C20.1387 26.5914 19.4658 26.3417 18.4839 26.3417C17.4852 26.3417 16.7784 26.6929 16.3637 27.3955C15.9489 28.0895 15.7288 29.2364 15.7035 30.8361V34.3276C15.7035 36.1643 15.9066 37.4255 16.3129 38.1111C16.7276 38.7967 17.4344 39.1395 18.4331 39.1395C19.415 39.1395 20.0921 38.9025 20.4645 38.4285C20.837 37.946 21.0486 37.0784 21.0993 35.8257H24.832ZM30.8627 35.4829V41.9834H27.13V23.4977H33.4273C35.2556 23.4977 36.7114 24.0648 37.7948 25.199C38.8867 26.3332 39.4326 27.806 39.4326 29.6173C39.4326 31.4286 38.8952 32.8591 37.8202 33.9086C36.7453 34.9582 35.2556 35.4829 33.3512 35.4829H30.8627ZM30.8627 32.3724H33.4273C34.1383 32.3724 34.6885 32.1396 35.0779 31.6741C35.4672 31.2086 35.6619 30.5314 35.6619 29.6427C35.6619 28.7201 35.463 27.988 35.0652 27.4463C34.6673 26.8961 34.1341 26.6168 33.4654 26.6083H30.8627V32.3724ZM51.4813 33.9848H45.6665V38.8855H52.5478V41.9834H41.9338V23.4977H52.5224V26.6083H45.6665V30.9758H51.4813V33.9848Z" fill="#2F0A77" /><defs><linearGradient id="paint0_linear_6480_8134" x1="0.015625" y1="64.9889" x2="64.0201" y2="64.9889" gradientUnits="userSpaceOnUse"><stop stop-color="#FFB800" /><stop offset="0.5" stop-color="#26C740" /><stop offset="1" stop-color="#DA222B" /></linearGradient></defs></svg>
