 <svg width="64" height="64" viewBox="0 0 65 65" fill="none" xmlns="http://www.w3.org/2000/svg"><path d="M0.59375 32.5391C0.59375 14.866 14.9206 0.539062 32.5938 0.539062C50.2669 0.539062 64.5938 14.866 64.5938 32.5391C64.5938 50.2122 50.2669 64.5391 32.5938 64.5391C14.9206 64.5391 0.59375 50.2122 0.59375 32.5391Z" fill="#DA222B" /><path d="M4.71265 32.5403C4.71265 17.0763 17.2487 4.54028 32.7126 4.54028C48.1766 4.54028 60.7126 17.0763 60.7126 32.5403C60.7126 48.0043 48.1766 60.5403 32.7126 60.5403C17.2487 60.5403 4.71265 48.0043 4.71265 32.5403Z" fill="white" /><path d="M39.0278 33.4646H30.9771V40.2498H40.5044V44.5388H25.8091V18.9451H40.4692V23.2517H30.9771V29.2986H39.0278V33.4646Z" fill="#2F0A77" /></svg>
