 <svg width="64" height="64" viewBox="0 0 65 65" fill="none" xmlns="http://www.w3.org/2000/svg"><path d="M0 32.9632C0 15.2888 14.3279 0.960938 32.0022 0.960938C49.6766 0.960938 64.0045 15.2888 64.0045 32.9632C64.0045 50.6375 49.6766 64.9654 32.0022 64.9654C14.3279 64.9654 0 50.6375 0 32.9632Z" fill="url(#paint0_linear_6480_8211)" /><path d="M4.1167 32.9619C4.1167 17.4969 16.6536 4.95996 32.1187 4.95996C47.5837 4.95996 60.1206 17.4969 60.1206 32.9619C60.1206 48.427 47.5837 60.9639 32.1187 60.9639C16.6536 60.9639 4.1167 48.427 4.1167 32.9619Z" fill="white" /><path d="M28.1582 34.1177H21.002V40.1489H29.4707V43.9614H16.4082V21.2114H29.4395V25.0396H21.002V30.4146H28.1582V34.1177ZM42.9863 39.3052H36.7207L35.502 43.9614H30.6426L37.752 21.2114H41.9551L49.1113 43.9614H44.2051L42.9863 39.3052ZM37.7207 35.4771H41.9707L39.8457 27.3677L37.7207 35.4771Z" fill="#2F0A77" /><defs><linearGradient id="paint0_linear_6480_8211" x1="0" y1="64.9654" x2="64.0045" y2="64.9654" gradientUnits="userSpaceOnUse"><stop stop-color="#DA222B" /><stop offset="1" stop-color="#0EA2D0" /></linearGradient></defs></svg>
