 <svg width="64" height="64" viewBox="0 0 65 65" fill="none" xmlns="http://www.w3.org/2000/svg"><path d="M0.015625 32.9905C0.015625 15.3162 14.3435 0.988281 32.0179 0.988281C49.6922 0.988281 64.0201 15.3162 64.0201 32.9905C64.0201 50.6649 49.6922 64.9928 32.0179 64.9928C14.3435 64.9928 0.015625 50.6649 0.015625 32.9905Z" fill="url(#paint0_linear_6480_8139)" /><path d="M4.13477 32.9912C4.13477 17.5262 16.6717 4.98926 32.1367 4.98926C47.6018 4.98926 60.1387 17.5262 60.1387 32.9912C60.1387 48.4563 47.6018 60.9932 32.1367 60.9932C16.6717 60.9932 4.13477 48.4563 4.13477 32.9912Z" fill="white" /><path d="M21.6199 33.9926H15.805V38.8933H22.6864V41.9912H12.0723V23.5055H22.661V26.6161H15.805V30.9836H21.6199V33.9926ZM33.6686 38.2077H28.5774L27.5871 41.9912H23.6386L29.4153 23.5055H32.8306L38.6455 41.9912H34.6589L33.6686 38.2077ZM29.39 35.0972H32.8433L31.1166 28.5078L29.39 35.0972ZM52.6367 35.8336C52.5436 37.9411 51.9511 39.5366 50.8592 40.62C49.7674 41.7034 48.2269 42.2451 46.2378 42.2451C44.1472 42.2451 42.5432 41.5595 41.426 40.1884C40.3172 38.8087 39.7628 36.845 39.7628 34.2973V31.1867C39.7628 28.6475 40.3383 26.6923 41.4894 25.3211C42.6406 23.9414 44.2403 23.2516 46.2886 23.2516C48.3031 23.2516 49.8308 23.8145 50.8719 24.9402C51.9215 26.0659 52.5182 27.6826 52.6621 29.7902H48.9167C48.8829 28.4867 48.6797 27.5895 48.3073 27.0986C47.9433 26.5992 47.2704 26.3495 46.2886 26.3495C45.2898 26.3495 44.5831 26.7008 44.1683 27.4033C43.7536 28.0973 43.5335 29.2442 43.5081 30.8439V34.3354C43.5081 36.1721 43.7113 37.4333 44.1175 38.1189C44.5323 38.8045 45.239 39.1473 46.2378 39.1473C47.2197 39.1473 47.8968 38.9103 48.2692 38.4363C48.6416 37.9538 48.8532 37.0862 48.904 35.8336H52.6367Z" fill="#2F0A77" /><defs><linearGradient id="paint0_linear_6480_8139" x1="0.015625" y1="64.9928" x2="64.0201" y2="64.9928" gradientUnits="userSpaceOnUse"><stop stop-color="#DA222B" /><stop offset="0.5" stop-color="#0EA2D0" /><stop offset="1" stop-color="#26C740" /></linearGradient></defs></svg>
