<svg width="64" height="64" viewBox="0 0 65 65" fill="none" xmlns="http://www.w3.org/2000/svg"><path d="M0.0078125 32.9905C0.0078125 15.3162 14.3357 0.988281 32.0101 0.988281C49.6844 0.988281 64.0123 15.3162 64.0123 32.9905C64.0123 50.6649 49.6844 64.9928 32.0101 64.9928C14.3357 64.9928 0.0078125 50.6649 0.0078125 32.9905Z" fill="url(#paint0_linear_6480_8114)" /><path d="M4.12671 32.9912C4.12671 17.5262 16.6636 4.98926 32.1287 4.98926C47.5937 4.98926 60.1306 17.5262 60.1306 32.9912C60.1306 48.4563 47.5937 60.9932 32.1287 60.9932C16.6636 60.9932 4.12671 48.4563 4.12671 32.9912Z" fill="white" /><path d="M21.4844 33.9926H15.6695V38.8933H22.5509V41.9912H11.9368V23.5055H22.5255V26.6161H15.6695V30.9836H21.4844V33.9926ZM33.5331 38.2077H28.4419L27.4516 41.9912H23.5031L29.2798 23.5055H32.6951L38.51 41.9912H34.5234L33.5331 38.2077ZM29.2545 35.0972H32.7078L30.9811 28.5078L29.2545 35.0972ZM43.982 35.4908V41.9912H40.2494V23.5055H46.5467C48.3749 23.5055 49.8308 24.0726 50.9142 25.2068C52.006 26.341 52.552 27.8138 52.552 29.6251C52.552 31.4364 52.0145 32.8669 50.9396 33.9164C49.8646 34.966 48.3749 35.4908 46.4705 35.4908H43.982ZM43.982 32.3802H46.5467C47.2577 32.3802 47.8078 32.1474 48.1972 31.6819C48.5865 31.2164 48.7812 30.5392 48.7812 29.6505C48.7812 28.7279 48.5823 27.9958 48.1845 27.4541C47.7867 26.9039 47.2534 26.6246 46.5848 26.6161H43.982V32.3802Z" fill="#2F0A77" /><defs><linearGradient id="paint0_linear_6480_8114" x1="0.0078125" y1="64.9928" x2="64.0123" y2="64.9928" gradientUnits="userSpaceOnUse"><stop stop-color="#DA222B" /><stop offset="0.5" stop-color="#0EA2D0" /><stop offset="1" stop-color="#26C740" /></linearGradient></defs></svg>
