 <svg width="64" height="64" viewBox="0 0 65 65" fill="none" xmlns="http://www.w3.org/2000/svg"><path d="M64.0201 32.9631C64.0201 50.6374 49.6923 64.9653 32.0179 64.9653C14.3435 64.9653 0.0156568 50.6374 0.0156583 32.9631C0.0156599 15.2887 14.3435 0.960842 32.0179 0.960843C49.6923 0.960845 64.0201 15.2887 64.0201 32.9631Z" fill="url(#paint0_linear_6480_8223)" /><path d="M4.13269 32.9627C4.13269 17.4976 16.6696 4.96069 32.1346 4.96069C47.5997 4.96069 60.1366 17.4976 60.1366 32.9627C60.1366 48.4277 47.5997 60.9646 32.1346 60.9646C16.6696 60.9646 4.13269 48.4277 4.13269 32.9627Z" fill="white" /><path d="M29.6129 34.1174H22.4567V40.1487H30.9254V43.9612H17.8629V21.2112H30.8942V25.0393H22.4567V30.4143H29.6129V34.1174ZM49.0035 36.3831C48.889 38.9768 48.1598 40.9403 46.816 42.2737C45.4723 43.607 43.5765 44.2737 41.1285 44.2737C38.5556 44.2737 36.5817 43.4299 35.2067 41.7424C33.8421 40.0445 33.1598 37.6278 33.1598 34.4924V30.6643C33.1598 27.5393 33.8681 25.1331 35.2848 23.4456C36.7015 21.7476 38.6702 20.8987 41.191 20.8987C43.6702 20.8987 45.5504 21.5914 46.8317 22.9768C48.1233 24.3622 48.8577 26.3518 49.0348 28.9456H44.4254C44.3838 27.3414 44.1338 26.2372 43.6754 25.6331C43.2275 25.0185 42.3994 24.7112 41.191 24.7112C39.9619 24.7112 39.0921 25.1435 38.5817 26.0081C38.0713 26.8622 37.8004 28.2737 37.7692 30.2424V34.5393C37.7692 36.7997 38.0192 38.3518 38.5192 39.1956C39.0296 40.0393 39.8994 40.4612 41.1285 40.4612C42.3369 40.4612 43.1702 40.1695 43.6285 39.5862C44.0869 38.9924 44.3473 37.9247 44.4098 36.3831H49.0035Z" fill="#2F0A77" /><defs><linearGradient id="paint0_linear_6480_8223" x1="64.0201" y1="0.960849" x2="0.0156611" y2="0.960843" gradientUnits="userSpaceOnUse"><stop stop-color="#FFB800" /><stop offset="1" stop-color="#DA222B" /></linearGradient></defs></svg>
