 <svg width="64" height="64" viewBox="0 0 65 65" fill="none" xmlns="http://www.w3.org/2000/svg"><path d="M0.0078125 32.9983C0.0078125 15.324 14.3357 0.996094 32.0101 0.996094C49.6844 0.996094 64.0123 15.324 64.0123 32.9983C64.0123 50.6727 49.6844 65.0006 32.0101 65.0006C14.3357 65.0006 0.0078125 50.6727 0.0078125 32.9983Z" fill="url(#paint0_linear_6480_8119)" /><path d="M4.12671 32.999C4.12671 17.534 16.6636 4.99707 32.1287 4.99707C47.5937 4.99707 60.1306 17.534 60.1306 32.999C60.1306 48.4641 47.5937 61.001 32.1287 61.001C16.6636 61.001 4.12671 48.4641 4.12671 32.999Z" fill="white" /><path d="M21.4717 33.9994H15.6568V38.9002H22.5382V41.998H11.9241V23.5124H22.5128V26.623H15.6568V30.9904H21.4717V33.9994ZM37.2277 35.8404C37.1346 37.948 36.5421 39.5434 35.4502 40.6269C34.3583 41.7103 32.8178 42.252 30.8288 42.252C28.7381 42.252 27.1342 41.5664 26.0169 40.1952C24.9081 38.8155 24.3537 36.8519 24.3537 34.3042V31.1936C24.3537 28.6543 24.9293 26.6991 26.0804 25.3279C27.2315 23.9483 28.8312 23.2585 30.8796 23.2585C32.894 23.2585 34.4218 23.8213 35.4629 24.9471C36.5124 26.0728 37.1092 27.6894 37.2531 29.797H33.5077C33.4738 28.4935 33.2707 27.5963 32.8983 27.1054C32.5343 26.606 31.8614 26.3563 30.8796 26.3563C29.8808 26.3563 29.174 26.7076 28.7593 27.4101C28.3446 28.1042 28.1245 29.2511 28.0991 30.8508V34.3422C28.0991 36.179 28.3022 37.4401 28.7085 38.1257C29.1233 38.8113 29.83 39.1541 30.8288 39.1541C31.8106 39.1541 32.4877 38.9171 32.8602 38.4431C33.2326 37.9607 33.4442 37.0931 33.495 35.8404H37.2277ZM48.3495 38.2146H43.2584L42.2681 41.998H38.3195L44.0963 23.5124H47.5116L53.3264 41.998H49.3398L48.3495 38.2146ZM44.0709 35.104H47.5243L45.7976 28.5147L44.0709 35.104Z" fill="#2F0A77" /><defs><linearGradient id="paint0_linear_6480_8119" x1="0.0078125" y1="65.0006" x2="64.0123" y2="65.0006" gradientUnits="userSpaceOnUse"><stop stop-color="#DA222B" /><stop offset="0.5" stop-color="#FFB800" /><stop offset="1" stop-color="#0EA2D0" /></linearGradient></defs></svg>
