 <svg width="64" height="64" viewBox="0 0 65 65" fill="none" xmlns="http://www.w3.org/2000/svg"><path d="M0.015625 32.9983C0.015625 15.324 14.3435 0.996094 32.0179 0.996094C49.6922 0.996094 64.0201 15.324 64.0201 32.9983C64.0201 50.6727 49.6922 65.0006 32.0179 65.0006C14.3435 65.0006 0.015625 50.6727 0.015625 32.9983Z" fill="url(#paint0_linear_6480_8144)" /><path d="M4.13477 32.999C4.13477 17.534 16.6717 4.99707 32.1367 4.99707C47.6018 4.99707 60.1387 17.534 60.1387 32.999C60.1387 48.4641 47.6018 61.001 32.1367 61.001C16.6717 61.001 4.13477 48.4641 4.13477 32.999Z" fill="white" /><path d="M21.8484 33.9994H16.0336V38.9002H22.9149V41.998H12.3009V23.5124H22.8895V26.623H16.0336V30.9904H21.8484V33.9994ZM37.6044 35.8404C37.5113 37.948 36.9188 39.5434 35.8269 40.6269C34.7351 41.7103 33.1946 42.252 31.2055 42.252C29.1149 42.252 27.5109 41.5664 26.3937 40.1952C25.2849 38.8155 24.7305 36.8519 24.7305 34.3042V31.1936C24.7305 28.6543 25.306 26.6991 26.4571 25.3279C27.6083 23.9483 29.208 23.2585 31.2563 23.2585C33.2708 23.2585 34.7985 23.8213 35.8396 24.9471C36.8892 26.0728 37.4859 27.6894 37.6298 29.797H33.8844C33.8506 28.4935 33.6474 27.5963 33.275 27.1054C32.911 26.606 32.2381 26.3563 31.2563 26.3563C30.2575 26.3563 29.5508 26.7076 29.136 27.4101C28.7213 28.1042 28.5012 29.2511 28.4758 30.8508V34.3422C28.4758 36.179 28.679 37.4401 29.0852 38.1257C29.5 38.8113 30.2067 39.1541 31.2055 39.1541C32.1874 39.1541 32.8645 38.9171 33.2369 38.4431C33.6093 37.9607 33.8209 37.0931 33.8717 35.8404H37.6044ZM43.6351 35.4976V41.998H39.9024V23.5124H46.1997C48.028 23.5124 49.4838 24.0795 50.5672 25.2137C51.6591 26.3479 52.205 27.8206 52.205 29.6319C52.205 31.4433 51.6676 32.8737 50.5926 33.9233C49.5177 34.9728 48.028 35.4976 46.1235 35.4976H43.6351ZM43.6351 32.387H46.1997C46.9107 32.387 47.4609 32.1543 47.8502 31.6887C48.2396 31.2232 48.4343 30.5461 48.4343 29.6573C48.4343 28.7348 48.2353 28.0026 47.8375 27.4609C47.4397 26.9107 46.9065 26.6314 46.2378 26.623H43.6351V32.387Z" fill="#2F0A77" /><defs><linearGradient id="paint0_linear_6480_8144" x1="0.015625" y1="65.0006" x2="64.0201" y2="65.0006" gradientUnits="userSpaceOnUse"><stop stop-color="#DA222B" /><stop offset="0.5" stop-color="#FFB800" /><stop offset="1" stop-color="#26C740" /></linearGradient></defs></svg>
