 <svg width="64" height="64" viewBox="0 0 65 65" fill="none" xmlns="http://www.w3.org/2000/svg"><path d="M0.0078125 32.9632C0.0078125 15.2888 14.3357 0.960938 32.0101 0.960938C49.6844 0.960938 64.0123 15.2888 64.0123 32.9632C64.0123 50.6375 49.6844 64.9654 32.0101 64.9654C14.3357 64.9654 0.0078125 50.6375 0.0078125 32.9632Z" fill="url(#paint0_linear_6480_8217)" /><path d="M4.12646 32.9644C4.12646 17.4993 16.6634 4.9624 32.1284 4.9624C47.5935 4.9624 60.1304 17.4993 60.1304 32.9644C60.1304 48.4294 47.5935 60.9663 32.1284 60.9663C16.6634 60.9663 4.12646 48.4294 4.12646 32.9644Z" fill="white" /><path d="M28.6189 34.1177H21.4627V40.1489H29.9314V43.9614H16.8689V21.2114H29.9002V25.0396H21.4627V30.4146H28.6189V34.1177ZM37.1814 35.9614V43.9614H32.5877V21.2114H40.3377C42.5877 21.2114 44.3793 21.9093 45.7127 23.3052C47.0564 24.701 47.7283 26.5135 47.7283 28.7427C47.7283 30.9718 47.0668 32.7323 45.7439 34.0239C44.421 35.3156 42.5877 35.9614 40.2439 35.9614H37.1814ZM37.1814 32.1333H40.3377C41.2127 32.1333 41.8897 31.8468 42.3689 31.2739C42.8481 30.701 43.0877 29.8677 43.0877 28.7739C43.0877 27.6385 42.8429 26.7375 42.3533 26.0708C41.8637 25.3937 41.2074 25.05 40.3845 25.0396H37.1814V32.1333Z" fill="#2F0A77" /><defs><linearGradient id="paint0_linear_6480_8217" x1="0.0078125" y1="64.9654" x2="64.0123" y2="64.9654" gradientUnits="userSpaceOnUse"><stop stop-color="#DA222B" /><stop offset="1" stop-color="#26C740" /></linearGradient></defs></svg>
