 <svg width="64" height="64" viewBox="0 0 65 65" fill="none" xmlns="http://www.w3.org/2000/svg"><path d="M0 32.9983C0 15.324 14.3279 0.996094 32.0022 0.996094C49.6766 0.996094 64.0045 15.324 64.0045 32.9983C64.0045 50.6727 49.6766 65.0006 32.0022 65.0006C14.3279 65.0006 0 50.6727 0 32.9983Z" fill="url(#paint0_linear_6480_8069)" /><path d="M4.1189 32.999C4.1189 17.534 16.6558 4.99707 32.1209 4.99707C47.5859 4.99707 60.1228 17.534 60.1228 32.999C60.1228 48.4641 47.5859 61.001 32.1209 61.001C16.6558 61.001 4.1189 48.4641 4.1189 32.999Z" fill="white" /><path d="M22.6068 33.9994H16.7919V38.9002H23.6733V41.998H13.0592V23.5124H23.6479V26.623H16.7919V30.9904H22.6068V33.9994ZM29.5643 35.4976V41.998H25.8316V23.5124H32.1289C33.9572 23.5124 35.413 24.0795 36.4964 25.2137C37.5883 26.3479 38.1342 27.8206 38.1342 29.6319C38.1342 31.4433 37.5967 32.8737 36.5218 33.9233C35.4469 34.9728 33.9572 35.4976 32.0527 35.4976H29.5643ZM29.5643 32.387H32.1289C32.8399 32.387 33.3901 32.1543 33.7794 31.6887C34.1688 31.2232 34.3634 30.5461 34.3634 29.6573C34.3634 28.7348 34.1645 28.0026 33.7667 27.4609C33.3689 26.9107 32.8357 26.6314 32.167 26.623H29.5643V32.387ZM47.1993 38.2146H42.1081L41.1178 41.998H37.1693L42.9461 23.5124H46.3614L52.1762 41.998H48.1896L47.1993 38.2146ZM42.9207 35.104H46.3741L44.6474 28.5147L42.9207 35.104Z" fill="#2F0A77" /><defs><linearGradient id="paint0_linear_6480_8069" x1="0" y1="65.0006" x2="64.0045" y2="65.0006" gradientUnits="userSpaceOnUse"><stop stop-color="#DA222B" /><stop offset="0.5" stop-color="#26C740" /><stop offset="1" stop-color="#0EA2D0" /></linearGradient></defs></svg>
