<svg width="64" height="64" viewBox="0 0 65 65" fill="none" xmlns="http://www.w3.org/2000/svg"><path d="M0 32.9983C0 15.324 14.3279 0.996094 32.0022 0.996094C49.6766 0.996094 64.0045 15.324 64.0045 32.9983C64.0045 50.6727 49.6766 65.0006 32.0022 65.0006C14.3279 65.0006 0 50.6727 0 32.9983Z" fill="url(#paint0_linear_6480_8094)" /><path d="M4.11914 32.999C4.11914 17.534 16.656 4.99707 32.1211 4.99707C47.5862 4.99707 60.1231 17.534 60.1231 32.999C60.1231 48.4641 47.5862 61.001 32.1211 61.001C16.656 61.001 4.11914 48.4641 4.11914 32.999Z" fill="white" /><path d="M21.8323 33.9994H16.0174V38.9002H22.8988V41.998H12.2848V23.5124H22.8734V26.623H16.0174V30.9904H21.8323V33.9994ZM28.7898 35.4976V41.998H25.0571V23.5124H31.3544C33.1827 23.5124 34.6385 24.0795 35.7219 25.2137C36.8138 26.3479 37.3598 27.8206 37.3598 29.6319C37.3598 31.4433 36.8223 32.8737 35.7473 33.9233C34.6724 34.9728 33.1827 35.4976 31.2783 35.4976H28.7898ZM28.7898 32.387H31.3544C32.0654 32.387 32.6156 32.1543 33.005 31.6887C33.3943 31.2232 33.589 30.5461 33.589 29.6573C33.589 28.7348 33.3901 28.0026 32.9923 27.4609C32.5944 26.9107 32.0612 26.6314 31.3925 26.623H28.7898V32.387ZM52.392 35.8404C52.2989 37.948 51.7065 39.5434 50.6146 40.6269C49.5227 41.7103 47.9822 42.252 45.9932 42.252C43.9025 42.252 42.2986 41.5664 41.1813 40.1952C40.0725 38.8155 39.5181 36.8519 39.5181 34.3042V31.1936C39.5181 28.6543 40.0937 26.6991 41.2448 25.3279C42.3959 23.9483 43.9956 23.2585 46.044 23.2585C48.0584 23.2585 49.5862 23.8213 50.6273 24.9471C51.6768 26.0728 52.2736 27.6894 52.4174 29.797H48.6721C48.6382 28.4935 48.4351 27.5963 48.0626 27.1054C47.6987 26.606 47.0258 26.3563 46.044 26.3563C45.0452 26.3563 44.3384 26.7076 43.9237 27.4101C43.5089 28.1042 43.2889 29.2511 43.2635 30.8508V34.3422C43.2635 36.179 43.4666 37.4401 43.8729 38.1257C44.2876 38.8113 44.9944 39.1541 45.9932 39.1541C46.975 39.1541 47.6521 38.9171 48.0246 38.4431C48.397 37.9607 48.6086 37.0931 48.6594 35.8404H52.392Z" fill="#2F0A77" /><defs><linearGradient id="paint0_linear_6480_8094" x1="0" y1="65.0006" x2="64.0045" y2="65.0006" gradientUnits="userSpaceOnUse"><stop stop-color="#DA222B" /><stop offset="0.5" stop-color="#26C740" /><stop offset="1" stop-color="#FFB800" /></linearGradient></defs></svg>
