 <svg width="64" height="64" viewBox="0 0 65 65" fill="none" xmlns="http://www.w3.org/2000/svg"><path d="M0.53125 32.5391C0.53125 14.866 14.8581 0.539062 32.5312 0.539062C50.2044 0.539062 64.5312 14.866 64.5312 32.5391C64.5312 50.2122 50.2044 64.5391 32.5312 64.5391C14.8581 64.5391 0.53125 50.2122 0.53125 32.5391Z" fill="#26C740" /><path d="M4.65063 32.5403C4.65063 17.0763 17.1867 4.54028 32.6506 4.54028C48.1146 4.54028 60.6506 17.0763 60.6506 32.5403C60.6506 48.0043 48.1146 60.5403 32.6506 60.5403C17.1867 60.5403 4.65063 48.0043 4.65063 32.5403Z" fill="white" /><path d="M29.2679 35.3574V44.3574H24.1V18.7637H32.8187C35.35 18.7637 37.3656 19.5488 38.8656 21.1191C40.3773 22.6895 41.1332 24.7285 41.1332 27.2363C41.1332 29.7441 40.389 31.7246 38.9007 33.1777C37.4125 34.6309 35.35 35.3574 32.7132 35.3574H29.2679ZM29.2679 31.0508H32.8187C33.8031 31.0508 34.5648 30.7285 35.1039 30.084C35.6429 29.4395 35.9125 28.502 35.9125 27.2715C35.9125 25.9941 35.6371 24.9805 35.0863 24.2305C34.5355 23.4688 33.7972 23.082 32.8714 23.0703H29.2679V31.0508Z" fill="#2F0A77" /></svg>
