 <svg width="66" height="65" viewBox="0 0 66 65" fill="none" xmlns="http://www.w3.org/2000/svg"><path d="M0.59375 32.0674C0.59375 14.3943 14.9206 0.0673828 32.5938 0.0673828C50.2669 0.0673828 64.5938 14.3943 64.5938 32.0674C64.5938 49.7405 50.2669 64.0674 32.5938 64.0674C14.9206 64.0674 0.59375 49.7405 0.59375 32.0674Z" fill="url(#paint0_linear_6480_8164)" /><path d="M4.7124 32.0686C4.7124 16.6046 17.2484 4.0686 32.7124 4.0686C48.1764 4.0686 60.7124 16.6046 60.7124 32.0686C60.7124 47.5326 48.1764 60.0686 32.7124 60.0686C17.2484 60.0686 4.7124 47.5326 4.7124 32.0686Z" fill="white" /><path d="M22.1443 35V43H17.5505V20.25H25.3005C27.5505 20.25 29.3422 20.9479 30.6755 22.3438C32.0193 23.7396 32.6912 25.5521 32.6912 27.7812C32.6912 30.0104 32.0297 31.7708 30.7068 33.0625C29.3839 34.3542 27.5505 35 25.2068 35H22.1443ZM22.1443 31.1719H25.3005C26.1755 31.1719 26.8526 30.8854 27.3318 30.3125C27.811 29.7396 28.0505 28.9062 28.0505 27.8125C28.0505 26.6771 27.8057 25.776 27.3162 25.1094C26.8266 24.4323 26.1703 24.0885 25.3474 24.0781H22.1443V31.1719ZM43.8474 38.3438H37.5818L36.363 43H31.5037L38.613 20.25H42.8162L49.9724 43H45.0662L43.8474 38.3438ZM38.5818 34.5156H42.8318L40.7068 26.4062L38.5818 34.5156Z" fill="#2F0A77" /><defs><linearGradient id="paint0_linear_6480_8164" x1="0.59375" y1="64.0674" x2="64.5938" y2="64.0674" gradientUnits="userSpaceOnUse"><stop stop-color="#26C740" /><stop offset="1" stop-color="#0EA2D0" /></linearGradient></defs></svg>
