 <svg width="64" height="64" viewBox="0 0 65 65" fill="none" xmlns="http://www.w3.org/2000/svg"><path d="M0.0078125 32.9749C0.0078125 15.3005 14.3357 0.972656 32.0101 0.972656C49.6844 0.972656 64.0123 15.3005 64.0123 32.9749C64.0123 50.6493 49.6844 64.9771 32.0101 64.9771C14.3357 64.9771 0.0078125 50.6493 0.0078125 32.9749Z" fill="url(#paint0_linear_6480_8099)" /><path d="M4.12622 32.9756C4.12622 17.5105 16.6631 4.97363 32.1282 4.97363C47.5932 4.97363 60.1301 17.5105 60.1301 32.9756C60.1301 48.4406 47.5932 60.9775 32.1282 60.9775C16.6631 60.9775 4.12622 48.4406 4.12622 32.9756Z" fill="white" /><path d="M15.9107 35.4712V41.9717H12.1781V23.486H18.4754C20.3036 23.486 21.7595 24.0531 22.8429 25.1873C23.9347 26.3215 24.4807 27.7943 24.4807 29.6056C24.4807 31.4169 23.9432 32.8473 22.8683 33.8969C21.7933 34.9465 20.3036 35.4712 18.3992 35.4712H15.9107ZM15.9107 32.3607H18.4754C19.1864 32.3607 19.7365 32.1279 20.1259 31.6624C20.5152 31.1968 20.7099 30.5197 20.7099 29.631C20.7099 28.7084 20.511 27.9762 20.1132 27.4345C19.7154 26.8844 19.1821 26.605 18.5135 26.5966H15.9107V32.3607ZM33.5458 38.1882H28.4546L27.4643 41.9717H23.5158L29.2925 23.486H32.7078L38.5227 41.9717H34.5361L33.5458 38.1882ZM29.2671 35.0776H32.7205L30.9938 28.4883L29.2671 35.0776ZM52.5139 35.814C52.4208 37.9216 51.8283 39.5171 50.7364 40.6005C49.6445 41.6839 48.1041 42.2256 46.115 42.2256C44.0244 42.2256 42.4204 41.54 41.3031 40.1688C40.1943 38.7892 39.6399 36.8255 39.6399 34.2778V31.1672C39.6399 28.628 40.2155 26.6728 41.3666 25.3016C42.5177 23.9219 44.1175 23.2321 46.1658 23.2321C48.1803 23.2321 49.708 23.795 50.7491 24.9207C51.7987 26.0464 52.3954 27.6631 52.5393 29.7706H48.7939C48.76 28.4672 48.5569 27.57 48.1845 27.079C47.8205 26.5797 47.1476 26.33 46.1658 26.33C45.167 26.33 44.4603 26.6812 44.0455 27.3837C43.6308 28.0778 43.4107 29.2247 43.3853 30.8244V34.3159C43.3853 36.1526 43.5885 37.4137 43.9947 38.0993C44.4095 38.7849 45.1162 39.1277 46.115 39.1277C47.0968 39.1277 47.774 38.8907 48.1464 38.4167C48.5188 37.9343 48.7304 37.0667 48.7812 35.814H52.5139Z" fill="#2F0A77" /><defs><linearGradient id="paint0_linear_6480_8099" x1="0.0078125" y1="64.9771" x2="64.0123" y2="64.9771" gradientUnits="userSpaceOnUse"><stop stop-color="#26C740" /><stop offset="0.5" stop-color="#0EA2D0" /><stop offset="1" stop-color="#FFB800" /></linearGradient></defs></svg>
