 <svg width="64" height="64" viewBox="0 0 65 65" fill="none" xmlns="http://www.w3.org/2000/svg"><path d="M0.015625 32.9749C0.015625 15.3005 14.3435 0.972656 32.0179 0.972656C49.6922 0.972656 64.0201 15.3005 64.0201 32.9749C64.0201 50.6493 49.6922 64.9771 32.0179 64.9771C14.3435 64.9771 0.015625 50.6493 0.015625 32.9749Z" fill="url(#paint0_linear_6480_8124)" /><path d="M4.13428 32.9756C4.13428 17.5105 16.6712 4.97363 32.1362 4.97363C47.6013 4.97363 60.1382 17.5105 60.1382 32.9756C60.1382 48.4406 47.6013 60.9775 32.1362 60.9775C16.6712 60.9775 4.13428 48.4406 4.13428 32.9756Z" fill="white" /><path d="M16.808 35.4712V41.9717H13.0753V23.486H19.3727C21.2009 23.486 22.6567 24.0531 23.7401 25.1873C24.832 26.3215 25.378 27.7943 25.378 29.6056C25.378 31.4169 24.8405 32.8473 23.7655 33.8969C22.6906 34.9465 21.2009 35.4712 19.2965 35.4712H16.808ZM16.808 32.3607H19.3727C20.0836 32.3607 20.6338 32.1279 21.0232 31.6624C21.4125 31.1968 21.6072 30.5197 21.6072 29.631C21.6072 28.7084 21.4083 27.9762 21.0105 27.4345C20.6127 26.8844 20.0794 26.605 19.4107 26.5966H16.808V32.3607ZM34.443 38.1882H29.3519L28.3616 41.9717H24.413L30.1898 23.486H33.6051L39.42 41.9717H35.4333L34.443 38.1882ZM30.1644 35.0776H33.6178L31.8911 28.4883L30.1644 35.0776ZM50.7069 33.9731H44.892V38.8738H51.7734V41.9717H41.1593V23.486H51.748V26.5966H44.892V30.9641H50.7069V33.9731Z" fill="#2F0A77" /><defs><linearGradient id="paint0_linear_6480_8124" x1="0.015625" y1="64.9771" x2="64.0201" y2="64.9771" gradientUnits="userSpaceOnUse"><stop stop-color="#26C740" /><stop offset="0.5" stop-color="#0EA2D0" /><stop offset="1" stop-color="#DA222B" /></linearGradient></defs></svg>
