 <svg width="64" height="64" viewBox="0 0 64 65" fill="none" xmlns="http://www.w3.org/2000/svg"><path d="M0 32.5977C0 14.9245 14.3269 0.597656 32 0.597656C49.6731 0.597656 64 14.9245 64 32.5977C64 50.2708 49.6731 64.5977 32 64.5977C14.3269 64.5977 0 50.2708 0 32.5977Z" fill="url(#paint0_linear_6480_8169)" /><path d="M4.11694 32.5969C4.11694 17.133 16.653 4.59692 32.1169 4.59692C47.5809 4.59692 60.1169 17.133 60.1169 32.5969C60.1169 48.0609 47.5809 60.5969 32.1169 60.5969C16.653 60.5969 4.11694 48.0609 4.11694 32.5969Z" fill="white" /><path d="M20.1838 36.001V44.001H15.5901V21.251H23.3401C25.5901 21.251 27.3818 21.9489 28.7151 23.3447C30.0588 24.7406 30.7307 26.5531 30.7307 28.7822C30.7307 31.0114 30.0693 32.7718 28.7463 34.0635C27.4234 35.3551 25.5901 36.001 23.2463 36.001H20.1838ZM20.1838 32.1729H23.3401C24.2151 32.1729 24.8922 31.8864 25.3713 31.3135C25.8505 30.7406 26.0901 29.9072 26.0901 28.8135C26.0901 27.6781 25.8453 26.777 25.3557 26.1104C24.8661 25.4333 24.2099 25.0895 23.387 25.0791H20.1838V32.1729ZM49.2307 36.4229C49.1161 39.0166 48.387 40.9801 47.0432 42.3135C45.6995 43.6468 43.8036 44.3135 41.3557 44.3135C38.7828 44.3135 36.8088 43.4697 35.4338 41.7822C34.0693 40.0843 33.387 37.6676 33.387 34.5322V30.7041C33.387 27.5791 34.0953 25.1729 35.512 23.4854C36.9286 21.7874 38.8974 20.9385 41.4182 20.9385C43.8974 20.9385 45.7776 21.6312 47.0588 23.0166C48.3505 24.402 49.0849 26.3916 49.262 28.9854H44.6526C44.6109 27.3812 44.3609 26.277 43.9026 25.6729C43.4547 25.0583 42.6265 24.751 41.4182 24.751C40.189 24.751 39.3193 25.1833 38.8088 26.0479C38.2984 26.902 38.0276 28.3135 37.9963 30.2822V34.5791C37.9963 36.8395 38.2463 38.3916 38.7463 39.2354C39.2568 40.0791 40.1265 40.501 41.3557 40.501C42.564 40.501 43.3974 40.2093 43.8557 39.626C44.314 39.0322 44.5745 37.9645 44.637 36.4229H49.2307Z" fill="#2F0A77" /><defs><linearGradient id="paint0_linear_6480_8169" x1="0" y1="64.5977" x2="64" y2="64.5977" gradientUnits="userSpaceOnUse"><stop stop-color="#26C740" /><stop offset="1" stop-color="#FFB800" /></linearGradient></defs></svg>
