 <svg width="64" height="64" viewBox="0 0 65 65" fill="none" xmlns="http://www.w3.org/2000/svg"><path d="M0 32.9788C0 15.3044 14.3279 0.976562 32.0022 0.976562C49.6766 0.976562 64.0045 15.3044 64.0045 32.9788C64.0045 50.6532 49.6766 64.981 32.0022 64.981C14.3279 64.981 0 50.6532 0 32.9788Z" fill="url(#paint0_linear_6480_8054)" /><path d="M4.11816 32.9775C4.11816 17.5125 16.6551 4.97559 32.1201 4.97559C47.5852 4.97559 60.1221 17.5125 60.1221 32.9775C60.1221 48.4426 47.5852 60.9795 32.1201 60.9795C16.6551 60.9795 4.11816 48.4426 4.11816 32.9775Z" fill="white" /><path d="M14.6336 35.479V41.9795H10.9009V23.4938H17.1982C19.0264 23.4938 20.4823 24.0609 21.5657 25.1951C22.6576 26.3293 23.2035 27.8021 23.2035 29.6134C23.2035 31.4247 22.666 32.8552 21.5911 33.9047C20.5161 34.9543 19.0264 35.479 17.122 35.479H14.6336ZM14.6336 32.3685H17.1982C17.9092 32.3685 18.4593 32.1357 18.8487 31.6702C19.238 31.2047 19.4327 30.5275 19.4327 29.6388C19.4327 28.7162 19.2338 27.984 18.836 27.4423C18.4382 26.8922 17.9049 26.6129 17.2363 26.6044H14.6336V32.3685ZM38.2358 35.8218C38.1427 37.9294 37.5502 39.5249 36.4583 40.6083C35.3665 41.6917 33.826 42.2334 31.8369 42.2334C29.7463 42.2334 28.1423 41.5478 27.025 40.1766C25.9162 38.797 25.3618 36.8333 25.3618 34.2856V31.175C25.3618 28.6358 25.9374 26.6806 27.0885 25.3094C28.2397 23.9297 29.8394 23.2399 31.8877 23.2399C33.9022 23.2399 35.4299 23.8028 36.471 24.9285C37.5206 26.0542 38.1173 27.6709 38.2612 29.7784H34.5158C34.4819 28.475 34.2788 27.5778 33.9064 27.0869C33.5424 26.5875 32.8695 26.3378 31.8877 26.3378C30.8889 26.3378 30.1822 26.689 29.7674 27.3916C29.3527 28.0856 29.1326 29.2325 29.1072 30.8322V34.3237C29.1072 36.1604 29.3104 37.4216 29.7166 38.1072C30.1314 38.7927 30.8381 39.1355 31.8369 39.1355C32.8187 39.1355 33.4959 38.8985 33.8683 38.4246C34.2407 37.9421 34.4523 37.0745 34.5031 35.8218H38.2358ZM49.3577 38.196H44.2665L43.2762 41.9795H39.3277L45.1044 23.4938H48.5197L54.3346 41.9795H50.348L49.3577 38.196ZM45.079 35.0855H48.5324L46.8057 28.4961L45.079 35.0855Z" fill="#2F0A77" /><defs><linearGradient id="paint0_linear_6480_8054" x1="0" y1="64.981" x2="64.0045" y2="64.981" gradientUnits="userSpaceOnUse"><stop stop-color="#26C740" /><stop offset="0.5" stop-color="#FFB800" /><stop offset="1" stop-color="#0EA2D0" /></linearGradient></defs></svg>
