 <svg width="64" height="64" viewBox="0 0 65 65" fill="none" xmlns="http://www.w3.org/2000/svg"><path d="M0 32.9788C0 15.3044 14.3279 0.976562 32.0022 0.976562C49.6766 0.976562 64.0045 15.3044 64.0045 32.9788C64.0045 50.6532 49.6766 64.981 32.0022 64.981C14.3279 64.981 0 50.6532 0 32.9788Z" fill="url(#paint0_linear_6480_8079)" /><path d="M4.11841 32.9775C4.11841 17.5125 16.6553 4.97559 32.1204 4.97559C47.5854 4.97559 60.1223 17.5125 60.1223 32.9775C60.1223 48.4426 47.5854 60.9795 32.1204 60.9795C16.6553 60.9795 4.11841 48.4426 4.11841 32.9775Z" fill="white" /><path d="M16.0174 35.479V41.9795H12.2848V23.4938H18.5821C20.4103 23.4938 21.8662 24.0609 22.9496 25.1951C24.0414 26.3293 24.5874 27.8021 24.5874 29.6134C24.5874 31.4247 24.0499 32.8552 22.975 33.9047C21.9 34.9543 20.4103 35.479 18.5059 35.479H16.0174ZM16.0174 32.3685H18.5821C19.2931 32.3685 19.8432 32.1357 20.2326 31.6702C20.6219 31.2047 20.8166 30.5275 20.8166 29.6388C20.8166 28.7162 20.6177 27.984 20.2199 27.4423C19.8221 26.8922 19.2888 26.6129 18.6202 26.6044H16.0174V32.3685ZM39.6197 35.8218C39.5266 37.9294 38.9341 39.5249 37.8422 40.6083C36.7503 41.6917 35.2099 42.2334 33.2208 42.2334C31.1302 42.2334 29.5262 41.5478 28.4089 40.1766C27.3001 38.797 26.7457 36.8333 26.7457 34.2856V31.175C26.7457 28.6358 27.3213 26.6806 28.4724 25.3094C29.6235 23.9297 31.2233 23.2399 33.2716 23.2399C35.286 23.2399 36.8138 23.8028 37.8549 24.9285C38.9045 26.0542 39.5012 27.6709 39.6451 29.7784H35.8997C35.8658 28.475 35.6627 27.5778 35.2903 27.0869C34.9263 26.5875 34.2534 26.3378 33.2716 26.3378C32.2728 26.3378 31.5661 26.689 31.1513 27.3916C30.7366 28.0856 30.5165 29.2325 30.4911 30.8322V34.3237C30.4911 36.1604 30.6942 37.4216 31.1005 38.1072C31.5153 38.7927 32.222 39.1355 33.2208 39.1355C34.2026 39.1355 34.8798 38.8985 35.2522 38.4246C35.6246 37.9421 35.8362 37.0745 35.887 35.8218H39.6197ZM51.4652 33.9809H45.6504V38.8816H52.5317V41.9795H41.9177V23.4938H52.5063V26.6044H45.6504V30.9719H51.4652V33.9809Z" fill="#2F0A77" /><defs><linearGradient id="paint0_linear_6480_8079" x1="0" y1="64.981" x2="64.0045" y2="64.981" gradientUnits="userSpaceOnUse"><stop stop-color="#26C740" /><stop offset="0.5" stop-color="#FFB800" /><stop offset="1" stop-color="#DA222B" /></linearGradient></defs></svg>
