 <svg width="64" height="64" viewBox="0 0 65 65" fill="none" xmlns="http://www.w3.org/2000/svg"><path d="M0.53125 32.5977C0.53125 14.9245 14.8581 0.597656 32.5312 0.597656C50.2044 0.597656 64.5312 14.9245 64.5312 32.5977C64.5312 50.2708 50.2044 64.5977 32.5312 64.5977C14.8581 64.5977 0.53125 50.2708 0.53125 32.5977Z" fill="url(#paint0_linear_6480_8181)" /><path d="M4.65063 32.5989C4.65063 17.1349 17.1867 4.59888 32.6506 4.59888C48.1146 4.59888 60.6506 17.1349 60.6506 32.5989C60.6506 48.0629 48.1146 60.5989 32.6506 60.5989C17.1867 60.5989 4.65063 48.0629 4.65063 32.5989Z" fill="white" /><path d="M22.4517 36.001V44.001H17.8579V21.251H25.6079C27.8579 21.251 29.6496 21.9489 30.9829 23.3447C32.3267 24.7406 32.9985 26.5531 32.9985 28.7822C32.9985 31.0114 32.3371 32.7718 31.0142 34.0635C29.6912 35.3551 27.8579 36.001 25.5142 36.001H22.4517ZM22.4517 32.1729H25.6079C26.4829 32.1729 27.16 31.8864 27.6392 31.3135C28.1183 30.7406 28.3579 29.9072 28.3579 28.8135C28.3579 27.6781 28.1131 26.777 27.6235 26.1104C27.134 25.4333 26.4777 25.0895 25.6548 25.0791H22.4517V32.1729ZM47.8267 34.1572H40.6704V40.1885H49.1392V44.001H36.0767V21.251H49.1079V25.0791H40.6704V30.4541H47.8267V34.1572Z" fill="#2F0A77" /><defs><linearGradient id="paint0_linear_6480_8181" x1="0.53125" y1="64.5977" x2="64.5313" y2="64.5977" gradientUnits="userSpaceOnUse"><stop stop-color="#26C740" /><stop offset="1" stop-color="#DA222B" /></linearGradient></defs></svg>
