<svg width="64" height="64" viewBox="0 0 65 65" fill="none" xmlns="http://www.w3.org/2000/svg"><path d="M0.0078125 32.9788C0.0078125 15.3044 14.3357 0.976562 32.0101 0.976562C49.6844 0.976562 64.0123 15.3044 64.0123 32.9788C64.0123 50.6532 49.6844 64.981 32.0101 64.981C14.3357 64.981 0.0078125 50.6532 0.0078125 32.9788Z" fill="url(#paint0_linear_6480_8104)" /><path d="M4.12598 32.9775C4.12598 17.5125 16.6629 4.97559 32.1279 4.97559C47.593 4.97559 60.1299 17.5125 60.1299 32.9775C60.1299 48.4426 47.593 60.9795 32.1279 60.9795C16.6629 60.9795 4.12598 48.4426 4.12598 32.9775Z" fill="white" /><path d="M15.6695 35.479V41.9795H11.9368V23.4938H18.2342C20.0624 23.4938 21.5182 24.0609 22.6016 25.1951C23.6935 26.3293 24.2395 27.8021 24.2395 29.6134C24.2395 31.4247 23.702 32.8552 22.627 33.9047C21.5521 34.9543 20.0624 35.479 18.158 35.479H15.6695ZM15.6695 32.3685H18.2342C18.9451 32.3685 19.4953 32.1357 19.8847 31.6702C20.274 31.2047 20.4687 30.5275 20.4687 29.6388C20.4687 28.7162 20.2698 27.984 19.872 27.4423C19.4741 26.8922 18.9409 26.6129 18.2722 26.6044H15.6695V32.3685ZM36.2881 33.9809H30.4733V38.8816H37.3546V41.9795H26.7406V23.4938H37.3292V26.6044H30.4733V30.9719H36.2881V33.9809ZM48.3368 38.196H43.2457L42.2554 41.9795H38.3068L44.0836 23.4938H47.4989L53.3137 41.9795H49.3271L48.3368 38.196ZM44.0582 35.0855H47.5116L45.7849 28.4961L44.0582 35.0855Z" fill="#2F0A77" /><defs><linearGradient id="paint0_linear_6480_8104" x1="0.0078125" y1="64.981" x2="64.0123" y2="64.981" gradientUnits="userSpaceOnUse"><stop stop-color="#26C740" /><stop offset="0.5" stop-color="#DA222B" /><stop offset="1" stop-color="#0EA2D0" /></linearGradient></defs></svg>
