 <svg width="64" height="64" viewBox="0 0 65 65" fill="none" xmlns="http://www.w3.org/2000/svg"><path d="M0.015625 32.9788C0.015625 15.3044 14.3435 0.976562 32.0179 0.976562C49.6922 0.976562 64.0201 15.3044 64.0201 32.9788C64.0201 50.6532 49.6922 64.981 32.0179 64.981C14.3435 64.981 0.015625 50.6532 0.015625 32.9788Z" fill="url(#paint0_linear_6480_8129)" /><path d="M4.13403 32.9775C4.13403 17.5125 16.6709 4.97559 32.136 4.97559C47.601 4.97559 60.1379 17.5125 60.1379 32.9775C60.1379 48.4426 47.601 60.9795 32.136 60.9795C16.6709 60.9795 4.13403 48.4426 4.13403 32.9775Z" fill="white" /><path d="M16.0336 35.479V41.9795H12.3009V23.4938H18.5982C20.4264 23.4938 21.8823 24.0609 22.9657 25.1951C24.0576 26.3293 24.6035 27.8021 24.6035 29.6134C24.6035 31.4247 24.066 32.8552 22.9911 33.9047C21.9161 34.9543 20.4264 35.479 18.522 35.479H16.0336ZM16.0336 32.3685H18.5982C19.3092 32.3685 19.8593 32.1357 20.2487 31.6702C20.638 31.2047 20.8327 30.5275 20.8327 29.6388C20.8327 28.7162 20.6338 27.984 20.236 27.4423C19.8382 26.8922 19.3049 26.6129 18.6363 26.6044H16.0336V32.3685ZM36.6522 33.9809H30.8373V38.8816H37.7187V41.9795H27.1046V23.4938H37.6933V26.6044H30.8373V30.9719H36.6522V33.9809ZM52.4082 35.8218C52.3151 37.9294 51.7226 39.5249 50.6307 40.6083C49.5388 41.6917 47.9983 42.2334 46.0093 42.2334C43.9186 42.2334 42.3147 41.5478 41.1974 40.1766C40.0886 38.797 39.5342 36.8333 39.5342 34.2856V31.175C39.5342 28.6358 40.1098 26.6806 41.2609 25.3094C42.412 23.9297 44.0117 23.2399 46.0601 23.2399C48.0745 23.2399 49.6023 23.8028 50.6434 24.9285C51.6929 26.0542 52.2897 27.6709 52.4336 29.7784H48.6882C48.6543 28.475 48.4512 27.5778 48.0788 27.0869C47.7148 26.5875 47.0419 26.3378 46.0601 26.3378C45.0613 26.3378 44.3545 26.689 43.9398 27.3916C43.5251 28.0856 43.305 29.2325 43.2796 30.8322V34.3237C43.2796 36.1604 43.4827 37.4216 43.889 38.1072C44.3038 38.7927 45.0105 39.1355 46.0093 39.1355C46.9911 39.1355 47.6682 38.8985 48.0407 38.4246C48.4131 37.9421 48.6247 37.0745 48.6755 35.8218H52.4082Z" fill="#2F0A77" /><defs><linearGradient id="paint0_linear_6480_8129" x1="0.015625" y1="64.981" x2="64.0201" y2="64.981" gradientUnits="userSpaceOnUse"><stop stop-color="#26C740" /><stop offset="0.5" stop-color="#DA222B" /><stop offset="1" stop-color="#FFB800" /></linearGradient></defs></svg>
