<svg width="25" height="18" viewBox="0 0 25 18" fill="none" xmlns="http://www.w3.org/2000/svg" class="absolute left-[-25px] top-2"><path d="M23.5573 17.9988L-21.5573 18C-22.3501 18 -23 17.3381 -23 16.5006C-23 15.6766 -22.3631 15.0012 -21.5573 15.0012L23.5573 15C24.3501 15 25 15.6619 25 16.4994C25 17.3234 24.3631 17.9988 23.5573 17.9988Z" fill="#2657ED" /><path d="M13.5123 3H-21.5123C-22.3299 3 -23 2.33784 -23 1.5C-23 0.675676 -22.3433 0 -21.5123 0L13.5123 0C14.3299 0 15 0.662162 15 1.5C15 2.32432 14.3433 3 13.5123 3Z" fill="#CA2037" /><path d="M19.5573 13H-21.5573C-22.3501 13 -23 12.3378 -23 11.5C-23 10.6757 -22.3631 10 -21.5573 10H19.5573C20.3501 10 21 10.6622 21 11.5C21 12.3243 20.3631 13 19.5573 13Z" fill="#00A760" /><path d="M22.5573 8H-21.5573C-22.3501 8 -23 7.33784 -23 6.5C-23 5.67568 -22.3631 5 -21.5573 5L22.5573 5C23.3501 5 24 5.66216 24 6.5C24 7.32432 23.3631 8 22.5573 8Z" fill="#FFBA00" /></svg>
